<svg height="58" width="125" xmlns="http://www.w3.org/2000/svg"><path d="m.161 26.82412v-26.024h11.9q4.945 0 7.584 2.64a8.138 8.138 0 0 1 2.231 6.023 7.916 7.916 0 0 1 -5.577 8.067l6.354 9.294h-6.692l-5.651-8.328h-4.424v8.328h-5.725zm5.725-13.384h5.8a4.71 4.71 0 0 0 3.234-1.022 3.472 3.472 0 0 0 1.152-2.733 3.331 3.331 0 0 0 -1.19-2.77 5.18 5.18 0 0 0 -3.309-.948h-5.688zm21.152 13.384v-26.024h19.63v5.093h-13.94v5.279h12.268v5.093h-12.268v5.465h14.127v5.094zm34.168.372a15.993 15.993 0 0 1 -11.042-4.164l3.383-4.052a12.172 12.172 0 0 0 7.771 3.16 4.91 4.91 0 0 0 2.751-.669 2.115 2.115 0 0 0 1-1.859 2.081 2.081 0 0 0 -1.041-1.8 16.012 16.012 0 0 0 -4.2-1.506 30.413 30.413 0 0 1 -3.606-1.1 12.022 12.022 0 0 1 -2.621-1.431 5.256 5.256 0 0 1 -1.819-2.251 8.3 8.3 0 0 1 -.576-3.253 7.087 7.087 0 0 1 2.547-5.688 9.8 9.8 0 0 1 6.561-2.159 14.992 14.992 0 0 1 9.666 3.309l-2.974 4.317a12.123 12.123 0 0 0 -6.768-2.566 4.076 4.076 0 0 0 -2.472.651 2.016 2.016 0 0 0 -.873 1.689 2.06 2.06 0 0 0 1.078 1.9 21.126 21.126 0 0 0 4.536 1.523 15.629 15.629 0 0 1 6.246 2.863 6.3 6.3 0 0 1 2.008 5.014 7.23 7.23 0 0 1 -2.623 5.934 10.631 10.631 0 0 1 -6.932 2.138zm20.038-.372v-20.745h-7.918v-5.279h21.562v5.279h-7.918v20.745zm39.445-3.457a13.48 13.48 0 0 1 -9.889 3.9 13.417 13.417 0 0 1 -9.871-3.9 12.963 12.963 0 0 1 -3.922-9.555 12.919 12.919 0 0 1 3.959-9.536 13.508 13.508 0 0 1 9.908-3.922 13.417 13.417 0 0 1 9.871 3.9 12.963 12.963 0 0 1 3.922 9.555 12.95 12.95 0 0 1 -3.978 9.558zm-15.465-3.755a7.412 7.412 0 0 0 5.651 2.379 7.322 7.322 0 0 0 5.613-2.361 8.227 8.227 0 0 0 2.193-5.818 8.167 8.167 0 0 0 -2.231-5.8 7.412 7.412 0 0 0 -5.651-2.379 7.322 7.322 0 0 0 -5.614 2.361 8.227 8.227 0 0 0 -2.193 5.818 8.167 8.167 0 0 0 2.232 5.8zm-96.286 38.103a11.57 11.57 0 0 1 -7.928-3.149l.956-1.1a11.445 11.445 0 0 0 3.289 2.235 9.615 9.615 0 0 0 3.767.689 5.57 5.57 0 0 0 3.584-1.11 3.489 3.489 0 0 0 1.392-2.854 3.168 3.168 0 0 0 -1.16-2.583 10.7 10.7 0 0 0 -4.4-1.6 11.8 11.8 0 0 1 -5.089-2.024 4.4 4.4 0 0 1 -1.546-3.57 4.6 4.6 0 0 1 1.8-3.683 6.859 6.859 0 0 1 4.526-1.49 10.49 10.49 0 0 1 3.641.576 11.249 11.249 0 0 1 3.107 1.813l-.928 1.153a8.7 8.7 0 0 0 -5.876-2.221 5.341 5.341 0 0 0 -3.472 1.082 3.327 3.327 0 0 0 -1.335 2.685 3.247 3.247 0 0 0 1.195 2.643 11.053 11.053 0 0 0 4.54 1.659 11.279 11.279 0 0 1 4.934 2 4.326 4.326 0 0 1 1.532 3.486 4.781 4.781 0 0 1 -1.829 3.859 7.145 7.145 0 0 1 -4.7 1.504zm11.33-.281v-19.68h14v1.35h-12.53v7.731h11.274v1.349h-11.274v7.9h12.679v1.35zm18.836 0v-19.68h8.265a7.493 7.493 0 0 1 5.538 1.94 5.037 5.037 0 0 1 1.49 3.711 4.92 4.92 0 0 1 -1.569 3.819 7.615 7.615 0 0 1 -4.19 1.8l6.494 8.406h-1.855l-6.269-8.153h-6.438v8.157zm1.462-9.474h6.635a6.623 6.623 0 0 0 4.137-1.223 3.966 3.966 0 0 0 1.6-3.331 3.766 3.766 0 0 0 -1.49-3.149 6.657 6.657 0 0 0 -4.161-1.153h-6.719zm25.278 9.615-8.659-19.821h1.631l7.7 18.105 7.734-18.105h1.546l-8.658 19.821zm14.31-.141v-19.68h1.462v19.68zm16.418.337a9.248 9.248 0 0 1 -6.986-2.938 10.1 10.1 0 0 1 -2.8-7.239 10.11 10.11 0 0 1 2.811-7.2 9.262 9.262 0 0 1 7.028-2.98 9.466 9.466 0 0 1 4.119.815 14.309 14.309 0 0 1 3.444 2.418l-.956.984a9.316 9.316 0 0 0 -6.635-2.9 7.764 7.764 0 0 0 -5.918 2.544 8.9 8.9 0 0 0 -2.376 6.312 8.85 8.85 0 0 0 2.4 6.3 7.8 7.8 0 0 0 5.918 2.558 8.254 8.254 0 0 0 3.627-.759 12.026 12.026 0 0 0 3.149-2.305l.984.956a13.2 13.2 0 0 1 -3.542 2.558 9.828 9.828 0 0 1 -4.267.876zm11.836-.337v-19.68h14v1.35h-12.538v7.731h11.274v1.349h-11.274v7.9h12.679v1.35z" fill="#343435"/></svg>