<svg height="224pt" preserveAspectRatio="xMidYMid meet" viewBox="0 0 250 224" width="250pt" xmlns="http://www.w3.org/2000/svg" class="ico _link" fill="currentColor"><g transform="matrix(.1 0 0 -.1 0 224)"><path d="m197 2229c-48-28-48-21-47-773l1-705-75-239c-75-235-76-241-76-345 0-99 2-107 26-136l26-31h1198 1198l26 31c24 29 26 37 26 136 0 104-1 110-76 345l-75 239 1 705c1 756 1 747-49 774-27 14-2079 13-2104-1zm2043-744v-645h-990-990v645 645h990 990zm-1800-775c0-6-7-40-16-76-13-50-14-71-6-90l12-24h820 820l12 24c8 19 7 40-6 90-9 36-16 70-16 76s35 10 94 10h95l46-148c25-81 53-167 61-191 7-25 14-48 14-53 0-4-504-8-1120-8-631 0-1120 4-1120 9 0 8 49 167 101 329l21 62h94c59 0 94-4 94-10zm1507-35 10-45h-707-707l10 45 10 45h687 687zm443-520v-45h-1140-1140v45 45h1140 1140z"></path><path d="m1007 415-27-55h270 270l-27 55-27 55h-216-216z"></path></g></svg>