<svg height="239pt" preserveAspectRatio="xMidYMid meet" viewBox="0 0 250 239" width="250pt" xmlns="http://www.w3.org/2000/svg" class="ico _link" fill="currentColor"><g transform="matrix(.1 0 0 -.1 0 239)"><path d="m50 2219c0-133-5-197-22-292-17-91-23-161-23-277 0-140 2-160 23-204l22-49v-698-699h1200 1200v699 698l22 49c21 44 23 64 22 204 0 116-6 185-22 272-17 93-22 154-22 293v175h-1200-1200zm2270-29v-80h-1070-1070v80 80h1070 1070zm-1930-454v-254l-36-23c-48-29-121-36-161-16-71 37-87 152-54 376 12 78 25 149 28 156 4 12 28 15 114 15h109zm400 5v-249l-30-26c-54-45-138-47-205-6l-35 22v254 254h135 135zm400 0v-250l-36-27c-46-36-125-44-175-19-73 37-69 21-69 297v248h140 140zm400 1c0-276 4-260-69-297-50-25-129-17-175 19l-36 27v250 249h140 140zm388-9-3-257-40-24c-52-30-134-27-188 7l-37 23v254 254h135 135zm356 240c15-47 46-286 45-348-1-168-90-238-219-172l-45 22-3 258-2 257h109c96 0 110-2 115-17zm-1789-646c77-38 223-18 286 39 15 13 21 12 65-15 95-60 212-60 307-1l47 29 48-29c99-62 210-60 313 7l36 24 49-30c106-66 223-59 336 21 13 10 20 9 35-5 40-36 116-61 186-60h67v-593-594h-80-80v510 510h-315-315v-510-510h-675-675v594 593l69-1c61 0 78 4 138 35 64 34 69 35 93 21 14-9 43-25 65-35zm1495-757v-450h-195-195v450 450h195 195z"></path><path d="m340 710v-430h515 515v430 430h-515-515zm910 0v-310h-395-395v310 310h395 395z"></path></g></svg>