<svg height="185pt" preserveAspectRatio="xMidYMid meet" viewBox="0 0 250 185" width="250pt" xmlns="http://www.w3.org/2000/svg" class="ico _link" fill="currentColor"><g transform="matrix(.1 0 0 -.1 0 185)"><path d="m39 1811-39-39v-713c0-683 1-715 19-743 38-57 64-66 201-66h125l18-50c27-76 74-130 146-167 55-29 72-33 141-33s86 4 141 33c72 37 119 91 146 167l18 50h370 370l18-50c27-76 74-130 146-167 91-48 191-48 282 0 71 36 119 91 146 166l17 49 58 4c52 4 63 9 96 41l37 37v318 317l-26 55c-30 63-218 321-288 393-83 87-84 87-376 87h-255v125c0 142-10 173-63 205-31 19-55 20-721 20h-688zm1386-86 25-24v-676-675h-248-247l-18 50c-27 76-74 130-146 167-55 29-72 33-141 33s-86-4-141-33c-72-37-119-91-146-168l-18-51-107 4c-71 2-111 7-120 16-10 10-14 149-16 677-2 655-2 665 18 685s31 20 650 20h631zm377-585 3-260 38-37 37-38 260-3 260-3v-200c0-199 0-200-25-224-13-14-34-25-47-25-19 0-27 10-41 50-27 76-74 130-146 167-55 29-72 33-141 33s-86-4-141-33c-72-37-119-91-146-167l-18-50h-72-73v500 501l25 24c22 23 31 25 124 25h100zm233 241c53-24 92-68 215-236 96-131 117-166 134-222l7-23h-221-221l-24 25-25 24v226 225h48c26 0 65-9 87-19zm-1297-910c67-34 102-93 102-171 0-111-79-190-190-190s-190 79-190 190 77 189 188 190c33 0 67-7 90-19zm1350 0c67-34 102-93 102-171 0-111-79-190-190-190s-190 79-190 190 77 189 188 190c33 0 67-7 90-19z"></path><path d="m598 1631c-214-69-348-254-348-481 0-287 213-500 500-500s500 213 500 500c0 227-136 415-349 480-83 26-223 26-303 1zm260-103c98-25 207-121 254-224 19-41 23-66 23-154 0-93-3-111-27-163-92-197-334-284-528-190-72 35-154 118-188 190-24 52-27 70-27 163s3 111 27 163c53 112 177 207 298 225 60 9 101 7 168-10z"></path><path d="m700 1316v-134l-90-67c-49-37-90-71-90-77 0-13 51-78 61-78 5 0 56 35 114 78l104 77 1 168v167h-50-50z"></path></g></svg>