<svg height="174pt" preserveAspectRatio="xMidYMid meet" viewBox="0 0 250 174" width="250pt" xmlns="http://www.w3.org/2000/svg" class="ico _link" fill="currentColor"><g transform="matrix(.1 0 0 -.1 0 174)"><path d="m170 1727c-50-16-143-112-158-163-17-59-17-1329 0-1388 16-55 109-148 164-164 60-17 2088-17 2148 0 55 16 148 109 164 164 17 59 17 1329 0 1388-16 55-109 148-164 164-56 16-2101 15-2154-1zm2115-116c48-22 69-44 90-94 23-55 23-1239 0-1294-21-50-42-72-90-94-38-18-91-19-1033-19-871 0-997 2-1029 15-50 21-72 42-94 90-17 37-19 80-19 653 0 529 2 618 15 649 21 50 42 72 90 94 38 18 91 19 1035 19s997-1 1035-19z"></path><path d="m358 1331-33-29-3-115c-3-90 0-123 12-149 27-56 46-62 196-66 156-3 192 8 222 68 23 44 25 204 4 254-25 61-43 66-213 66h-153zm292-161v-80h-105-105v80 80h105 105z"></path><path d="m1373 1245c-26-18-32-72-11-93 9-9 111-12 399-12 339 0 390 2 403 16 20 19 20 54 2 80-14 18-31 19-393 22-332 2-381 1-400-13z"></path><path d="m325 686c-19-29-11-72 15-86 10-6 88-10 172-10 172 0 198 8 198 60 0 56-14 60-200 60-168 0-170 0-185-24z"></path><path d="m816 688c-21-30-20-54 4-78 18-18 33-20 178-20 177 0 202 7 202 60 0 56-14 60-200 60-163 0-169-1-184-22z"></path><path d="m1307 692c-23-25-21-58 3-82 18-18 33-20 178-20 176 0 202 8 202 59 0 55-19 61-202 61-147 0-167-2-181-18z"></path><path d="m1797 692c-23-25-21-58 3-82 18-18 33-20 180-20s162 2 180 20c25 25 26 62 2 83-16 14-44 17-184 17-147 0-167-2-181-18z"></path><path d="m330 420c-11-11-20-29-20-40s9-29 20-40c19-19 33-20 400-20s381 1 400 20c25 25 25 55 0 80-19 19-33 20-400 20s-381-1-400-20z"></path></g></svg>