<svg height="261pt" preserveAspectRatio="xMidYMid meet" viewBox="0 0 250 261" width="250pt" xmlns="http://www.w3.org/2000/svg" class="ico _link" fill="currentColor"><g transform="matrix(.1 0 0 -.1 0 261)"><path d="m999 2595c-31-17-44-46-62-134l-13-64-89-36c-50-20-121-54-160-75-61-33-97-58-200-138-20-16-25-16-97 7-85 27-128 23-165-17-11-13-64-97-117-187-125-215-127-238-21-331 28-25 52-46 54-47s-4-42-13-90c-20-112-20-244 0-356 9-48 15-89 13-90-20-12-107-96-116-111-7-12-12-39-13-62 0-33 17-69 100-210 55-93 103-175 108-182s27-20 50-27c39-14 47-13 119 10 73 23 78 23 98 7 103-80 139-105 200-138 39-21 110-55 160-75l89-36 13-64c30-150 27-149 313-149s283-1 313 149l13 64 89 36c50 20 122 54 160 75 61 33 97 58 200 138 20 16 25 16 97-7 85-27 128-23 165 17 11 13 64 97 117 187 125 214 126 225 30 320l-65 66 15 85c20 108 20 242 0 350l-15 85 65 66c96 96 95 105-34 324-55 94-103 176-108 183s-27 20-50 27c-39 14-47 13-119-10-73-23-78-23-98-7-103 80-139 105-200 138-38 21-110 55-159 75l-90 36-16 74c-18 84-33 113-67 128-38 17-461 14-494-4zm441-162c20-101 28-134 32-137 1-1 32-10 68-20 139-37 304-131 413-235l58-55 94 31 94 31 89-151 89-151-73-64c-41-35-74-66-74-67 0-2 10-43 22-92 30-123 30-313 0-436-12-49-22-90-22-92 0-1 33-32 74-67l73-64-88-150c-67-112-93-148-106-146-10 1-53 15-95 29l-78 26-57-54c-109-104-274-198-413-235-36-10-67-19-68-20-4-3-12-36-32-136l-11-58h-179-179l-11 58c-20 100-28 133-32 136-1 1-32 10-68 20-139 37-304 131-413 235l-58 55-94-31-95-31-56 96c-31 54-71 121-89 151l-33 54 74 65c41 35 74 66 74 67 0 2-10 43-22 92-30 124-30 312 0 436 12 49 22 90 22 92 0 1-33 32-73 67l-74 64 88 150c67 114 92 148 106 146 10-1 53-15 95-29l78-26 57 54c109 104 274 198 413 235 36 10 67 19 68 20 4 3 12 36 32 137l11 57h179 179z"></path><path d="m726 1697c-11-8-55-131-122-347-117-372-123-411-71-440 24-13 30-13 55 0 16 9 28 26 30 40s10 47 18 73l16 48 111-3 111-3 14-50c7-27 17-61 20-75 17-60 105-43 117 22 9 47-195 705-226 731-25 20-49 22-73 4zm101-493c-3-3-34-4-70-2l-65 3 29 95c16 52 32 102 36 110 3 9 20-30 40-93 19-60 32-111 30-113z"></path><path d="m1150 1690c-19-19-20-33-20-385s1-366 20-385c24-24 48-25 78-4 21 14 22 22 22 145v129h112c100 0 115 2 154 25 67 39 84 85 84 231-1 224-44 263-292 264-125 0-140-2-158-20zm308-122c8-8 12-50 12-125 0-135 2-133-129-133h-91v135 135h98c63 0 102-4 110-12z"></path><path d="m1720 1690c-33-33-26-76 18-99 22-12 22-12 22-286s0-274-22-286c-44-23-51-66-18-99 17-17 33-20 98-20 98 0 124 15 120 68-2 27-9 40-25 47l-23 10v276 277l25 16c19 12 25 25 25 51 0 50-27 65-122 65-65 0-81-3-98-20z"></path></g></svg>