<svg height="235pt" preserveAspectRatio="xMidYMid meet" viewBox="0 0 250 235" width="250pt" xmlns="http://www.w3.org/2000/svg" class="ico _link" fill="currentColor"><path d="m800 2050v-300h200 200v-250-250h-450-450v-325-325h-150-150v-300-300h350 350v300 300h-150-150v275 275h400 400v-275-275h-150-150v-300-300h350 350v300 300h-150-150v275 275h400 400v-275-275h-150-150v-300-300h350 350v300 300h-150-150v325 325h-450-450v250 250h200 200v300 300h-450-450zm800 0v-200h-350-350v200 200h350 350zm-1000-1750v-200h-250-250v200 200h250 250zm900 0v-200h-250-250v200 200h250 250zm900 0v-200h-250-250v200 200h250 250z" transform="matrix(.1 0 0 -.1 0 235)"></path></svg>