<svg height="269pt" preserveAspectRatio="xMidYMid meet" viewBox="0 0 250 269" width="250pt" xmlns="http://www.w3.org/2000/svg" class="ico _link" fill="currentColor"><g transform="matrix(.1 0 0 -.1 0 269)"><path d="m370 2667c-176-60-303-191-354-366-14-48-16-160-16-956s2-908 16-956c53-179 194-320 373-373 48-14 152-16 861-16s813 2 861 16c179 53 320 194 373 373 14 48 16 160 16 956s-2 908-16 956c-53 179-194 320-373 373-48 14-152 16-865 16l-811-1zm1694-122c143-37 262-160 295-305 7-28 11-282 11-682 0-603-1-640-19-699-37-116-119-207-238-262l-48-22-794-3c-889-3-848-6-960 69-75 50-134 130-161 217-19 61-20 94-20 701 0 399 4 653 11 681 33 142 152 267 291 304 81 22 1548 23 1632 1zm-1800-2039c23-13 71-35 106-48l65-23h815 815l65 23c80 29 135 61 194 113l46 41v-59c-1-153-80-294-207-368-92-55-94-55-913-55-642 0-765 2-814 15-181 47-305 212-306 408v59l46-41c25-22 65-51 88-65z"></path><path d="m1178 1910-3-221-175 107c-96 59-182 109-190 111-10 3-27-16-49-52-19-30-32-57-30-59 2-1 90-54 196-117l191-115-156-94c-252-150-234-137-221-163 7-12 23-39 36-59l23-38 188 115 187 114 3-220 2-219h70 70l2 219 3 220 187-114 188-115 23 38c13 20 29 47 36 59 13 26 31 13-221 163l-156 94 191 115c106 63 194 116 196 117 2 2-11 29-30 59-22 36-39 55-49 52-8-2-94-52-190-111l-175-107-3 221-2 220h-70-70z"></path></g></svg>