<svg height="194pt" preserveAspectRatio="xMidYMid meet" viewBox="0 0 250 194" width="250pt" xmlns="http://www.w3.org/2000/svg" class="ico _social" fill="currentColor"><path d="m151 1896c-49-18-111-74-132-120-18-39-19-82-19-804 0-834-2-802 58-866 15-16 50-39 77-52l50-24h1065 1065l50 24c28 13 62 36 77 52 60 64 58 32 58 866 0 720-1 765-19 804-23 49-88 107-140 122-56 17-2142 15-2190-2zm1958-100c-24-25-848-590-859-590s-835 565-859 590c-2 2 384 4 859 4s861-2 859-4zm-1349-401c265-184 486-335 490-335s243 164 531 364c576 400 544 383 589 311 28-45 25-70-12-109-35-36-1092-786-1108-786s-1073 750-1107 786c-18 18-33 44-33 56 0 29 32 78 62 94 19 10 28 8 64-17 23-16 259-179 524-364zm-562 38 62-44v-626-625l-36 7c-48 8-81 31-100 66-20 39-22 1284-1 1273 6-4 40-27 75-51zm2181-1216c-15-35-54-63-102-72l-37-7v626 625l73 51 72 51 3-623c2-450-1-631-9-651zm-1541 765 412-292 413 292c226 160 424 299 440 310l27 19v-585-586h-880-880v586 585l28-19c15-11 213-150 440-310z" transform="matrix(.1 0 0 -.1 0 194)"></path></svg>