<svg height="300pt" preserveAspectRatio="xMidYMid meet" viewBox="0 0 300 300" width="300pt" xmlns="http://www.w3.org/2000/svg" class="ico _social" fill="currentColor"><path d="m1466 2385c-786-338-1437-622-1447-631-25-22-25-85-1-106 9-9 257-136 549-282l533-266 266-533c146-292 273-540 282-549 20-24 84-24 105 0 30 32 1247 2878 1247 2915 0 43-26 67-71 66-22 0-539-217-1463-614zm401-410-728-725-442 222c-399 199-440 222-418 232 71 31 2307 994 2311 995 3 0-323-326-723-724zm809 563c-95-226-979-2274-982-2277-1-2-103 196-225 440l-222 444 718 713c395 391 720 712 722 712s-3-15-11-32z" transform="matrix(.1 0 0 -.1 0 300)"></path></svg>