<svg height="300pt" preserveAspectRatio="xMidYMid meet" viewBox="0 0 300 300" width="300pt" xmlns="http://www.w3.org/2000/svg" class="ico _social" fill="currentColor"><g transform="matrix(.1 0 0 -.1 0 300)"><path d="m1275 2990c-622-96-1119-569-1252-1190-26-122-26-468 0-590 25-115 69-246 121-355l43-91-93-329c-51-182-93-347-94-367 0-44 21-68 61-68 17 0 187 39 380 86l350 86 92-40c214-94 336-122 567-129 208-7 334 9 505 64 521 166 907 593 1022 1133 26 122 26 478 0 600-98 456-393 841-802 1044-121 60-223 97-354 128-99 23-441 34-546 18zm451-145c136-24 247-61 379-126 318-157 565-436 683-771 72-202 93-459 57-673-94-554-519-993-1075-1112-119-25-420-26-537 0-113 24-221 61-333 114l-95 45-313-77c-172-42-315-75-318-72-2 2 32 133 76 290s80 297 80 311-15 54-34 88c-68 125-121 284-146 443-16 99-13 315 5 420 34 195 120 405 230 560 61 86 189 220 271 286 176 140 424 246 664 282 70 11 325 6 406-8z"></path><path d="m885 2275c-49-17-145-115-179-183-77-152-75-324 4-499 91-201 361-504 582-656 143-98 421-209 558-222 148-14 303 39 406 139 43 42 56 63 73 120 29 95 28 192-2 228-28 35-355 189-414 196-56 6-84-13-163-110-34-43-66-78-72-78-21 0-167 79-224 121-33 24-83 68-113 98-57 60-141 172-141 189 0 5 16 29 36 53 50 60 74 112 74 159 0 28-22 94-70 208-78 187-92 210-141 234-42 22-156 23-214 3zm162-147c6-13 36-85 67-160 65-155 66-143-14-234-46-52-50-61-50-108 0-46 6-60 57-136 68-101 193-229 282-290 89-60 236-131 284-138 57-7 92 15 167 109 52 63 69 78 86 74 12-2 79-33 150-67 88-43 130-69 132-82 7-36-21-109-56-144-20-19-65-48-101-65-95-45-189-44-326 2-242 82-382 168-566 351-190 188-311 364-354 514-38 129-2 270 90 355 39 36 50 41 93 41 41 0 50-4 59-22z"></path></g></svg>