<svg height="329pt" preserveAspectRatio="xMidYMid meet" viewBox="0 0 300 329" width="300pt" xmlns="http://www.w3.org/2000/svg" class="ico _social" fill="currentColor"><g transform="matrix(.1 0 0 -.1 0 329)"><path d="m1220 3284c-397-47-664-142-860-307-248-208-345-505-357-1089-6-271 2-373 43-558 63-282 183-482 363-605 40-27 115-64 182-89l114-42 3-297 2-297h73 73l247 248 247 249 228 7c587 17 845 76 1054 240 193 152 320 447 357 830 16 159 14 489-4 640-42 362-124 568-290 731-170 167-399 261-772 316-117 17-202 22-408 24-143 2-276 1-295-1zm546-159c437-46 706-150 863-332 132-154 207-438 218-828 8-303-19-543-83-735-78-231-176-352-355-438-197-95-371-122-864-137-115-4-227-11-248-16-30-8-75-49-237-212l-199-202-1 200c0 272-3 276-208 355-159 61-228 113-313 233-187 267-239 774-138 1352 54 309 177 478 444 613 268 135 699 191 1121 147z"></path><path d="m1425 2779c-69-16-97-79-57-129 20-25 26-26 177-15 120 9 201-7 315-62 110-53 225-170 280-285 58-120 76-230 60-355-11-82-11-96 3-117 23-34 72-43 105-19 37 28 44 61 46 213 1 160-19 246-87 374-71 134-231 285-362 341-109 47-159 57-300 61-77 2-158-1-180-7z"></path><path d="m795 2639c-54-15-138-73-172-117-69-91-71-177-7-340 199-511 572-906 1103-1170 142-71 160-77 226-80 63-4 80 0 131 24 111 54 214 185 214 273 0 59-34 101-163 198-148 111-200 141-260 149-62 9-127-23-168-82-33-49-73-74-118-74-44 0-201 84-278 149-88 74-155 157-204 255-63 126-54 174 50 264 65 57 86 100 72 150-33 113-215 358-295 396-37 17-84 19-131 5z"></path><path d="m1490 2573c-36-7-70-42-70-73 0-15 10-40 22-55 20-26 24-27 84-22 185 18 350-75 430-241 25-50 29-71 32-175 4-111 5-118 29-137 62-48 117-8 128 91 29 276-169 546-442 604-65 14-160 17-213 8z"></path><path d="m1510 2333c-16-20-20-36-16-58 9-43 25-54 88-65 31-5 70-16 86-24 64-33 112-114 112-188 0-41 32-68 80-68 57 0 74 30 68 113-14 173-168 317-338 317-52 0-61-3-80-27z"></path></g></svg>