<svg height="202pt" preserveAspectRatio="xMidYMid meet" viewBox="0 0 250 202" width="250pt" xmlns="http://www.w3.org/2000/svg"><g transform="matrix(.1 0 0 -.1 0 202)" fill="#fff"><path d="m962 1999c-52-26-105-86-120-138-7-21-12-75-12-120v-81h835 835v93c-1 133-39 204-135 248-37 17-81 19-700 19-652 0-661 0-703-21z"/><path d="m325 1367c-191-134-267-193-290-225l-30-44-3-456c-3-510-3-507 65-575 67-68 70-68 533-65l415 3 67 33c51 25 83 51 131 105 36 40 146 164 246 276 101 113 189 218 198 235 10 20 14 48 11 87-4 60-20 89-91 173l-34 40-327-203c-180-112-345-210-368-218-84-29-189 23-229 112-17 37-19 76-19 473 0 237-3 432-7 431-5 0-125-82-268-182z"/><path d="m830 1163c0-243 2-272 20-310 10-24 23-43 27-43 5 0 168 99 362 220 195 121 357 217 361 215 16-10 225-282 248-323 28-49 52-133 52-179v-33h201c226 0 259 6 320 59 75 64 79 79 79 389v272h-835-835z"/></g></svg>