<svg height="250pt" preserveAspectRatio="xMidYMid meet" viewBox="0 0 250 250" width="250pt" xmlns="http://www.w3.org/2000/svg"><g transform="matrix(.1 0 0 -.1 0 250)" fill="#23303c"><path d="m735 2487c-92-36-155-108-175-200-8-37-10-350-8-1067 3-1009 3-1015 24-1061 25-53 80-110 132-136 35-17 84-18 807-21 699-2 774-1 814 14 60 23 119 79 147 139l24 50v1045 1045l-24 50c-29 60-76 107-136 134-44 20-61 21-810 20-560 0-773-4-795-12zm910-422c216-46 377-215 422-444 23-117 9-214-48-331-38-77-56-99-189-230-106-104-150-156-159-183l-13-37h-134-133l5 33c22 130 64 195 232 358 142 137 171 181 179 269 11 115-44 223-139 276-46 25-63 29-133 29-94 0-133-16-195-78-45-46-90-131-90-171v-26h-136-137l6 48c21 176 159 369 318 445 117 56 218 69 344 42zm15-1510v-135h-135-135v135 135h135 135z"/><path d="m0 1250v-1120h140 140v1120 1120h-140-140z"/></g></svg>