<svg height="250pt" preserveAspectRatio="xMidYMid meet" viewBox="0 0 250 250" width="250pt" xmlns="http://www.w3.org/2000/svg"><g transform="matrix(.1 0 0 -.1 0 250)" fill="#fff"><path d="m10 2370v-130h129 128l22-52c12-29 103-249 202-490l180-436-85-137c-91-146-104-184-93-275 10-85 63-161 142-203 40-22 42-22 823-25l782-2v130 130h-750-749l73 118 73 117 499 5 499 5 47 28c26 15 58 42 72 60 13 17 128 221 255 453 249 454 254 464 212 528-37 56-29 55-518 56h-453v125 125h-130-130v-125-125h-348-348l-50 123-50 122-217 3-217 2zm1480-315v-185h182 183l-243-242-243-243-234 240-233 240 174 3 174 2v185 185h120 120z"/><path d="m642 479c-78-40-142-142-142-229 0-50 30-126 65-167 54-64 109-86 204-82 64 3 84 9 119 32 157 103 157 331 0 434-35 24-54 28-122 31-67 2-88-1-124-19z"/><path d="m1885 482c-52-24-118-99-133-150-28-93-9-181 55-252 57-63 109-84 201-78 89 5 153 41 197 112 27 45 30 57 30 136s-3 91-30 136c-19 30-49 60-79 79-42 25-61 30-125 33-58 2-86-2-116-16z"/></g></svg>