<svg height="250pt" preserveAspectRatio="xMidYMid meet" viewBox="0 0 250 250" width="250pt" xmlns="http://www.w3.org/2000/svg" fill="#fff"><path d="m132 2474c-29-14-64-40-77-58-58-76-55-3-55-1263v-1158l253 252 252 253 916 2 916 3 49 30c30 19 60 49 79 79l30 49v837 837l-30 49c-19 30-49 60-79 79l-49 30-1076 3-1077 2zm1450-392 33-32 3-228c3-279 9-264-141-342-87-45-107-59-107-77 0-23-2-23-120-23h-120v74c0 102 17 125 148 194l102 54v89 89h-130-130v-70-70h-121-120l3 154c3 149 4 155 28 181 14 15 34 31 45 36 11 4 149 7 307 6l288-2zm-212-957v-125h-120-120v125 125h120 120z" transform="matrix(.1 0 0 -.1 0 250)"/></svg>