<svg height="400" preserveAspectRatio="xMidYMid meet" width="51" xmlns="http://www.w3.org/2000/svg"><path d="m38.6.8c-1.5 2.4-38.6 97.6-38.6 99 0 2 37.7 98.30001 39 99.6 1.2 1.3 12-2.39999 12-4.09999 0-.7-8.3-22.40001-18.5-48.3l-18.6-47.1 18.6-47c10.2-25.8 18.5-47.5 18.5-48.2s-2.2-2-4.9-3c-5.4-1.9-6.8-2.1-7.5-.9z" fill="#fff"/><path d="m38.6 200.46716c-1.5 2.40001-38.6 97.60001-38.6 99 0 2 37.7 98.30002 39 99.60001 1.2 1.30002 12-2.39999 12-4.10001 0-.69998-8.3-22.39999-18.5-48.29999l-18.6-47.10001 18.6-47c10.2-25.79999 18.5-47.5 18.5-48.2s-2.2-2-4.9-3c-5.4-1.90001-6.8-2.09999-7.5-.90001z" fill="#3cb0c8"/></svg>