<svg height="26" viewBox="0 0 20 26" width="20" xmlns="http://www.w3.org/2000/svg"><path d="m235.999522 986.999676v5.000325h15.999513v-5.000325h2.001391v7.000745h-20.00034v-7.000745zm2.000678-9.999925c1.644385 0 3.000557 1.355692 3.000557 3.000601 0 1.585743-1.261032 2.902747-2.825524 2.994796l-.175033.005138v1.999695h-2.000678v-8.00023zm6.499708 0c1.327847 0 2.410341 1.029688 2.494816 2.335534l.005307.164614v2.999905c0 1.327801-1.02938 2.410387-2.335474 2.49487l-.164649.005307h-2.499985v-8.00023zm8.499259 0v1.999695h-2.999706v1.000906h1.999574v1.999724h-1.999574v2.999905h-1.99916v-8.00023zm-8.499259 1.999695h-.500411v4.00084h.500411c.191217 0 .438097-.225928.490599-.426814l.010088-.073668v-2.999905c0-.214513-.285568-.500453-.500687-.500453zm-6.499708 0v2.001116c.554438 0 .999166-.445585.999166-1.00021 0-.555321-.444728-1.000906-.999166-1.000906zm16.000226-10.99941v7.00002h-2.001391v-4.999629h-15.999513v4.999629h-1.999436v-7.00002z" fill="#757e86" fill-rule="evenodd" transform="translate(-234 -968)"/></svg>