<svg height="26" viewBox="0 0 20 26" width="20" xmlns="http://www.w3.org/2000/svg"><path d="m634.999522 987.00014v5.000325h15.999536v-5.000325h2.001368v7.000049h-20.00034v-7.000049zm2.000701-10.000621c1.585657 0 2.903299 1.261018 2.995393 2.825562l.005141.175039v1.999724c0 1.585715-1.261011 2.902502-2.825501 2.994536l-.175033.005137h-2.000701v-7.999998zm6.499685 0c1.327847 0 2.410341 1.030116 2.494816 2.335585l.005307.164563v2.999905c0 1.382894-1.116949 2.499945-2.500123 2.499945-1.326898 0-2.410138-1.029474-2.494674-2.335328l-.005311-.164617v-2.999905c0-1.382401 1.1178-2.500148 2.499985-2.500148zm5.999274 0c1.328929 0 2.410322 1.030116 2.494707 2.335585l.005301.164563v.500453h-1.999298v-.500453c0-.214513-.28543-.499757-.50071-.499757-.190215 0-.436875.225378-.48934.426121l-.010082.073636v2.999905c0 .215238.28543.500453.499422.500453.19136 0 .438147-.225355.490626-.426602l.010084-.073851v-.499728h1.999298v.499728c0 1.382894-1.115707 2.499945-2.500008 2.499945-1.326633 0-2.409078-1.029474-2.493551-2.335328l-.005307-.164617v-2.999905c0-1.382401 1.116949-2.500148 2.498858-2.500148zm-12.498959 2.000391v4.000115c.514835 0 .935054-.384203.992458-.88313l.006685-.117051v-1.999724c0-.554596-.444705-1.00021-.999143-1.00021zm6.499685 0c-.190215 0-.437766.225378-.490428.426121l-.010121.073636v2.999905c0 .215238.286557.500453.500549.500453.191217 0 .438115-.225355.490621-.426602l.010089-.073851v-2.999905c0-.214513-.285591-.499757-.50071-.499757zm9.500518-10.99941v6.999295h-2.001368v-4.9996h-15.999536v4.9996h-1.999436v-6.999295z" fill="#757e86" fill-rule="evenodd" transform="translate(-633 -968)"/></svg>