<svg height="26" viewBox="0 0 20 26" width="20" xmlns="http://www.w3.org/2000/svg"><path d="m1133.99957 985.999952v5.000072h15.99953v-5.000072h2.00137v7.000028h-20.00034v-7.000028zm14.49966-10.000172c1.38039 0 2.50001 1.121764 2.50001 2.5004 0 1.378608-1.11962 2.500148-2.50001 2.500148h-.4997v2.99992h-1.99916v-8.000468zm-4.49942 0v8.000468h-2.00027v-8.000468zm-3.99984 0v1.777384l-2.53396 4.22268h2.53396v2.000404h-5.00013v-1.777384l2.53384-4.222428h-2.53384v-2.000656zm8.49926 2.000656h-.4997v.999488h.4997c.27597 0 .50071-.223972.50071-.499744 0-.276024-.22474-.499744-.50071-.499744zm3.50124-11.000136v6.9993h-2.00137v-4.999596h-15.99953v4.999596h-1.99944v-6.9993z" fill="#757e86" fill-rule="evenodd" transform="translate(-1132 -967)"/></svg>