<svg height="313pt" preserveAspectRatio="xMidYMid meet" viewBox="0 0 250 313" width="250pt" xmlns="http://www.w3.org/2000/svg"><path fill="#23303c" d="m175 3101c-73-35-115-78-149-151l-26-55v-930c0-578 4-943 10-965 26-96 40-107 649-565 320-239 585-435 591-435 19 0 1167 868 1189 898 12 17 30 50 41 74 19 42 20 71 20 983v940l-29 60c-35 73-78 115-151 149l-55 26h-1015-1015zm1218-466c129-34 223-111 278-228 33-69 34-76 34-193 0-118 0-121-37-195-22-43-67-107-108-154-102-114-138-171-152-237l-12-58h-148-148v33c0 50 28 147 57 197 15 24 64 82 111 129 113 113 137 163 137 286 0 104-23 162-78 195-96 59-205-13-238-158l-12-52h-145-145l5 84c12 179 120 309 293 352 71 18 239 17 308-1zm7-1385v-150h-150-150v150 150h150 150z" transform="matrix(.1 0 0 -.1 0 313)"/></svg>