<svg height="141" viewBox="0 0 138 141" width="138" xmlns="http://www.w3.org/2000/svg" xmlns:xlink="http://www.w3.org/1999/xlink"><linearGradient id="a" x1="50%" x2="50%" y1="0%" y2="100%"><stop offset="0" stop-color="#56cbe3"/><stop offset="1" stop-color="#a8e5f2"/></linearGradient><path d="m1394.56545 351.499428c0-3.984695 6.03415-8.44558 5.37441-12.241372-.67691-3.901898-7.87148-6.025734-9.18896-9.663368-1.33679-3.705416 2.80692-9.987549.87188-13.354341-1.94923-3.39911-9.42823-2.907476-11.92345-5.898893-2.49707-2.995278-.72818-10.331178-3.70649-12.850123-2.96609-2.508792-9.83151.513513-13.20259-1.453738-3.34481-1.948375-4.16301-9.453873-7.84053-10.801505-3.60836-1.326611-9.02509 3.880877-12.89871 3.196193-3.76925-.665093-7.08893-7.431567-11.04434-7.431567-3.95484 0-7.27551 6.766474-11.04319 7.431567-3.87234.684684-9.28538-4.522804-12.89943-3.197623-3.67652 1.349062-4.49756 8.85313-7.83754 10.802935-3.37691 1.968681-10.24048-1.055054-13.20913 1.455168-2.97476 2.51966-1.20501 9.853415-3.70393 12.848693-2.49252 2.991417-9.97308 2.502643-11.92544 5.898893-1.93276 3.369509 2.21179 9.64964.87316 13.355056-1.31663 3.636919-8.50637 5.75861-9.1874 9.660508-.6586 3.797222 5.37243 8.258822 5.37243 12.243517 0 3.985696-6.03188 8.446581-5.37328 12.242373.67805 3.903328 7.87162 6.023589 9.1891 9.663368 1.33594 3.706131-2.8089 9.985404-.87401 13.351481 1.95023 3.400826 9.43022 2.908191 11.92544 5.900752 2.49892 2.997709.73017 10.332179 3.70677 12.848979 2.9688 2.510079 9.82938-.512083 13.2033 1.454453 3.34581 1.948375 4.16075 9.454588 7.83869 10.80222 3.61021 1.326611 9.02396-3.880877 12.89857-3.197194 3.76726.664378 7.09105 7.433283 11.04476 7.433283 3.95441 0 7.27622-6.768905 11.04462-7.433283 3.87347-.683683 9.28268 4.523805 12.89573 3.198624 3.67978-1.349062 4.49955-8.855275 7.84067-10.805938 3.37477-1.964248 10.24019 1.057914 13.20628-1.453595 2.97547-2.5168 1.20445-9.850555 3.70464-12.849694 2.49253-2.990416 9.97309-2.500212 11.9253-5.898607 1.93291-3.369509-2.21165-9.64678-.87486-13.352196 1.31847-3.639064 8.50907-5.759325 9.18811-9.662653.66271-3.795792-5.37058-8.256677-5.37058-12.242373z" fill="url(#a)" fill-rule="evenodd" transform="translate(-1262 -281)"/></svg>