<svg height="258pt" preserveAspectRatio="xMidYMid meet" viewBox="0 0 250 258" width="250pt" xmlns="http://www.w3.org/2000/svg"><g transform="matrix(.1 0 0 -.1 0 258)" fill="#cd252e"><path d="m1900 2558c-121-47-200-119-257-236-37-75-38-78-38-191 0-110 2-120 32-184 88-185 290-297 483-267 144 23 280 125 343 257 31 65 32 73 32 194 0 124 0 125-38 201-45 92-122 167-217 212-58 28-76 31-175 33-93 3-118 0-165-19zm273-128c76-29 130-79 169-157 63-129 37-276-67-377-127-124-345-115-463 19-42 48-82 136-82 180v25h165 165v165 165h30c16 0 53-9 83-20z"/><path d="m775 2019c-284-57-313-69-347-146-18-41-20-62-16-202 3-144 6-161 30-213 37-80 107-151 187-191 59-29 75-32 151-32 103 0 172 28 248 99 106 99 125 173 120 474l-3 214-28 24c-18 15-40 24-60 23-18 0-144-23-282-50z"/><path d="m1500 1513c-8-3-25-15-37-26-23-20-23-24-23-279v-259l25-24c23-24 28-25 175-25h150v-45-45h-205-205v105c0 117-11 155-56 196-41 37-85 49-184 49-122 0-124-2-166-175-18-77-34-148-34-158 0-15-7-18-37-15l-37 3-26 100-26 100 25 59c24 57 24 59 6 72-24 18-106 18-130 0-18-13-18-15 7-70 24-53 25-60 12-104-49-178-41-162-79-162-27 0-35 4-35 18 0 9-16 80-34 157-42 174-43 175-170 175-99 0-153-17-193-61-35-38-43-74-43-185v-104h-64c-49 0-69-5-90-21-24-19-26-26-26-99 0-134-135-120 1165-120h1112l27 25c23 21 26 31 26 92-1 110-21 123-194 123h-126v45 45h153c152 0 154 0 178 26l24 26v254 254l-28 27-27 28-398 2c-218 1-404-1-412-4z"/><path d="m120 272c0-190 3-231 16-250l15-22h1014c993 0 1015 0 1025 19 6 12 10 110 10 250v231h-1040-1040z"/></g></svg>