<svg height="250pt" preserveAspectRatio="xMidYMid meet" viewBox="0 0 250 250" width="250pt" xmlns="http://www.w3.org/2000/svg"><g transform="matrix(.1 0 0 -.1 0 250)" fill="#cd252e"><path d="m187 2276c-21-8-48-22-59-33-49-43-48-30-48-878v-796l53 3 52 3v803 802h1065 1065v-802-803l53-3 52-3-2 810c-3 805-3 810-24 838-12 15-36 37-55 48-33 20-54 20-1074 22-860 2-1047 0-1078-11z"/><path d="m260 1335v-765h990 990v765 765h-990-990zm1081 627c54-60 43-153-21-190-27-15-30-22-30-64v-48h-40-40v48c0 42-3 49-30 64-61 35-74 124-28 183 28 36 54 45 112 41 41-3 55-9 77-34zm529-20c38-28 51-61 47-115-7-77-74-127-150-113-30 6-38 0-112-74-44-44-82-80-85-80s-17 12-33 25l-27 24 83 86 84 86-5 52c-3 43 0 57 19 81 44 56 123 69 179 28zm-1073-17c34-34 35-38 31-90l-5-55 84-83c45-45 83-84 82-87 0-3-14-16-30-29l-31-24-83 83c-77 76-85 82-114 75-69-15-139 34-148 104-12 86 37 141 124 141 50 0 59-4 90-35zm543-378c19-7 44-27 57-46 20-29 23-47 23-122v-89h98c117 0 158-16 186-74 19-38 19-38-14-240-18-110-39-215-47-231-27-62-44-65-328-65h-256l-44 26-43 25-4-23c-3-23-5-23-162-26-121-2-161 1-168 10-4 7-8 160-8 340 0 313 1 328 19 338 21 11 278 14 305 4 9-4 19-23 22-45 6-38 7-39 49-39 90 0 145 69 145 182 0 53 4 69 18 77 23 14 109 13 152-2z"/><path d="m1240 1428c-1-126-98-218-229-218h-31v-194-193l55-37 55-36h228c211 0 230 1 246 19s76 326 76 393c0 40-25 48-149 48-60 0-116 3-125 6-13 5-16 25-16 115 0 126-12 149-75 149h-35z"/><path d="m710 1025v-275h95 95v275 275h-95-95z"/><path d="m0 399c0-101 0-101 33-134 18-18 51-38 72-44 56-15 2234-15 2290 0 21 6 54 26 72 44 33 33 33 33 33 134v101h-449-449l-4-56c-4-46-10-61-37-87l-31-32h-280-280l-31 32c-27 26-33 41-37 87l-4 56h-449-449z"/><path d="m980 462c0-21 5-43 12-50 17-17 499-17 516 0 7 7 12 29 12 50v38h-270-270z"/></g></svg>