<svg height="202pt" preserveAspectRatio="xMidYMid meet" viewBox="0 0 250 202" width="250pt" xmlns="http://www.w3.org/2000/svg"><g transform="matrix(.1 0 0 -.1 0 202)" fill="#cd252e"><path d="m670 1010v-1010h225 225v225 225h130 130v-225-225h225 225v1010 1010h-580-580zm490 640v-130h-125-125v130 130h125 125zm430 0v-130h-125-125v130 130h125 125zm-430-427v-128h-125-125v128 127h125 125zm430 0v-128h-125-125v128 127h125 125zm-430-429v-124h-125-125v128 127l125-3 125-3zm430 6v-130h-125-125v125 124l123 4c67 1 123 4 125 5 1 1 2-56 2-128z"/><path d="m0 920v-920h205 205v203 202l85-3 85-3v720 721h-290-290zm440 585v-115h-115-115v115 115h115 115zm0-390v-115h-115-115v115 115h115 115zm0-390v-115h-115-115v115 115h115 115z"/><path d="m1920 1119v-720l85 3 85 3v-202-203h205 205v920 920h-290-290zm370 384v-118h-115-115v118 117h115 115zm0-388v-115h-115-115v115 115h115 115zm0-390v-115h-115-115v115 115h115 115z"/></g></svg>