<svg height="257pt" preserveAspectRatio="xMidYMid meet" viewBox="0 0 250 257" width="250pt" xmlns="http://www.w3.org/2000/svg"><g transform="matrix(.1 0 0 -.1 0 257)" fill="#cd252e"><path d="m961 2554c-174-29-361-106-480-199-231-177-347-419-377-785-5-68-10-88-26-99-11-7-33-31-49-54l-29-40v-213-212l33-43c51-67 107-91 234-98l107-6 20-48c18-42 19-54 9-102-7-31-18-67-25-83-16-33-136-117-200-140-27-9-48-20-48-24 0-6 68-23 123-30 42-6-137-148-203-163-17-4-30-12-30-18 0-14 103-85 175-120 107-53 181-69 338-75 198-6 315 17 469 94l66 33 69-14c86-18 130-18 216 0l69 14 66-33c154-77 271-100 469-94 157 6 231 22 338 75 72 35 175 106 175 120 0 6-13 14-30 18-36 8-133 70-183 119l-38 36h40c44 0 141 20 140 29 0 3-41 25-90 49-63 31-108 61-153 105-57 55-65 68-72 111-5 37-2 59 12 95l20 46 106 6c120 7 179 29 224 82 49 58 54 83 54 274 0 198-9 234-75 291-31 28-33 35-40 113-26 324-118 545-297 715-40 38-100 87-133 109-115 76-294 139-462 164-101 15-430 12-532-5zm593-154c417-89 645-355 682-798l7-83-38 3-38 3-14 65c-60 300-218 525-448 640-261 130-659 130-920 0-229-115-389-341-448-635l-14-70-38-3-38-3 6 79c33 431 264 710 657 796 132 29 201 35 375 31 122-3 198-10 269-25zm-500-729c92-74 115-86 301-151 83-28 169-63 193-77s46-23 49-20c6 7-23 63-52 103l-24 31 57-9c153-23 293-73 395-141l49-32-5-165c-7-235-48-373-156-538-99-148-224-259-383-337-115-56-204-73-301-57-75 13-206 70-284 123-57 39-159 134-216 203-40 48-41 48-11 33 46-23 181-56 265-63 63-6 79-11 104-35 47-44 112-69 180-69 88 0 134 16 182 65 38 38 43 48 43 88 0 89-90 156-209 157-82 0-132-15-178-55-36-31-36-31-111-23-165 18-293 70-377 152-48 46-54 58-70 126-10 41-20 132-22 201l-6 126 36 6c113 18 265 145 330 274 33 67 47 116 62 216l6 39 40-56c21-30 72-82 113-115z"/><path d="m853 1330c-94-57-88-187 11-234 43-20 69-20 113 1 45 21 73 67 73 118 0 104-110 169-197 115z"/><path d="m1503 1330c-88-53-82-190 10-233 43-21 67-21 111-3 47 20 79 69 79 122 0 103-113 168-200 114z"/></g></svg>