<svg height="250pt" preserveAspectRatio="xMidYMid meet" viewBox="0 0 250 250" width="250pt" xmlns="http://www.w3.org/2000/svg"><path fill="#cd252e" d="m250 2070c-31-31-36-68-13-98l20-27 452-5c433-5 453-6 467-24 19-27 18-70-4-89-16-15-77-17-574-19-531-3-557-4-577-22-32-29-29-88 5-115 26-21 35-21 579-21 522 0 553-1 568-18 21-23 22-62 3-88-14-18-33-19-522-22-504-3-508-3-531-24-33-30-31-80 3-107 24-19 40-21 145-21 66 0 119-2 119-5s-13-74-30-158c-67-346-89-478-84-492 10-25 39-35 97-35h54l6-56c20-197 238-276 426-154 62 41 135 130 146 181l7 29h352 353l-4-24c-9-46 24-131 67-174 81-81 202-93 323-34 88 44 187 158 187 217 0 12 13 15 64 15 86 0 118 25 135 106 17 86 14 121-10 138l-21 14 21 110c33 174 29 197-42 211-30 6-40 22-143 205-62 109-122 211-133 227l-22 29h-154-155l5 23c8 34 55 289 55 298 0 5-9 18-20 29-20 20-33 20-810 20-773 0-790 0-810-20zm1859-595c31-55 71-126 89-157l32-58h-243-243l28 138c15 75 27 147 28 160 0 22 1 23 126 20l127-3zm-1294-641c35-16 65-65 65-106-1-37-34-102-69-131-44-37-100-51-151-37-117 32-101 214 24 271 50 23 88 24 131 3zm1280 2c85-36 86-159 2-233-132-116-295-6-217 147 41 81 135 119 215 86z" transform="matrix(.1 0 0 -.1 0 250)"/></svg>