<svg height="250pt" preserveAspectRatio="xMidYMid meet" viewBox="0 0 250 250" width="250pt" xmlns="http://www.w3.org/2000/svg"><g transform="matrix(.1 0 0 -.1 0 250)" fill="#cd252e"><path d="m2172 2488c-29-29-6-64 52-83 56-18 113-139 150-319 55-263 44-629-25-861-36-121-92-215-129-215-8 0-26-7-38-16-48-33-10-91 53-80 112 21 207 211 250 500 20 136 20 456 0 588-38 252-109 422-200 478-36 22-95 26-113 8z"/><path d="m1848 2329c-37-21-6-89 40-89 49 0 116-101 151-230 91-325 3-802-153-836-41-8-56-22-56-48 0-67 90-62 169 9 52 48 84 104 120 212 41 124 55 243 48 420-10 283-93 491-221 552-47 23-72 26-98 10z"/><path d="m1507 2152c-10-10-17-23-17-29 0-17 33-39 76-51 49-14 106-73 133-136 62-142 54-359-17-490-31-57-93-106-133-106-55 0-74-74-24-94 24-9 76 4 121 30 213 121 260 554 85 791-60 82-184 129-224 85z"/><path d="m487 2046c-217-39-384-124-461-234-51-75-56-74 353-70l356 3 57 27c71 33 141 97 179 163 37 64 37 92 2 106-44 18-394 21-486 5z"/><path d="m1066 1970c-29-90-102-183-178-228-40-24-35-44 22-81 55-36 107-94 139-159 24-48 46-62 66-41 13 14 95 442 95 498 0 35-16 46-81 56l-46 7z"/><path d="m4 1656c-13-34 68-126 147-167 31-15 39-24 34-37-13-33-64-239-84-337-29-142-68-422-86-615-19-204-17-207 74-161 133 68 197 163 208 311 3 47 14 108 25 137 34 93 142 169 280 197l63 13 5 39 5 39 53 5c60 6 75 21 64 65-4 17-7 71-7 120 0 71 5 100 22 138l22 48 42-22c37-18 47-20 81-10 21 7 38 17 38 24 0 22-68 114-107 144-21 17-58 41-83 54-45 24-47 24-418 27-326 3-373 1-378-12z"/><path d="m515 882c-99-47-145-116-145-219 0-192-113-344-308-413-60-22-62-24-62-57 0-63 45-120 130-164 44-23 53-24 325-27 257-3 280-2 292 14 8 12 13 51 13 111 0 104-15 133-68 133-63 0-128 74-139 159-3 22 13 121 42 254 25 119 43 222 40 227-11 18-59 11-120-18z"/></g></svg>