<svg height="250pt" preserveAspectRatio="xMidYMid meet" viewBox="0 0 250 250" width="250pt" xmlns="http://www.w3.org/2000/svg"><path fill="#cd252e" d="m1035 2483c-186-39-356-130-500-265-151-143-249-307-302-506-23-86-26-116-26-267-1-186 18-303 69-447 121-339 384-592 741-715l83-28v-129c0-116 2-128 17-122 9 4 179 101 377 215 466 269 488 282 484 286-2 2-192 112-423 245s-424 246-429 251c-26 25-31 5-28-115l3-123-53 4c-99 8-198 34-281 75-121 60-236 178-299 308-65 131-82 201-82 340-1 120 17 207 63 312 21 46 22 46 49 33 42-21 194-63 294-81l89-17-6-40c-9-53-9-432 0-485 6-40 6-42-18-42-26 0-141-22-209-41-21-5-38-14-38-20s21-33 48-61l48-50 83 16c46 9 88 16 95 16 6 0 19-36 28-81s18-83 20-84c2-2 20-6 41-10l37-7v160 160l90-54c72-43 98-54 133-54 24 0 85-3 136-7 87-6 92-7 87-27-2-12-7-41-11-66l-6-45 61-33c34-19 63-32 65-30 3 2 12 45 22 94l18 91 95-17c112-21 260-62 260-72 0-11-159-171-189-191-14-9-23-18-20-20 2-2 40-23 84-45l80-42 68 68c270 266 375 633 283 994-49 195-149 362-301 506-146 138-316 227-507 266-99 20-326 20-423-1zm285-198c55-79 109-234 136-387l6-38h-198c-110 0-205 4-212 8-10 7-9 23 3 83 30 144 73 259 124 333 29 41 36 46 71 46s42-5 70-45zm-337-70c-31-77-83-275-83-318 0-13-6-16-22-13-13 3-59 12-103 21-103 21-213 53-220 64-7 13 62 94 131 152 88 75 171 121 314 172 8 3 15 6 16 6 1 1-14-37-33-84zm707-6c85-49 158-111 220-184 42-49 47-61 34-68-22-12-229-63-291-72-47-6-53-5-53 12 0 43-52 240-83 317l-33 84 70-25c39-14 100-43 136-64zm401-524c29-102 36-277 15-389-21-111-63-219-82-212-63 24-207 62-292 76-57 10-105 20-106 22-1 1 1 62 5 133 6 121 5 230-6 366l-4 56 58 7c67 8 271 58 322 79l34 14 18-41c10-23 27-72 38-111zm-745 31 131 6 6-63c9-79 9-327 1-405l-6-59h-228-228l-6 59c-8 76-8 322 0 406l6 65 97-8c53-4 155-5 227-1z" transform="matrix(.1 0 0 -.1 0 250)"/></svg>