<svg height="250pt" preserveAspectRatio="xMidYMid meet" viewBox="0 0 250 250" width="250pt" xmlns="http://www.w3.org/2000/svg"><g transform="matrix(.1 0 0 -.1 0 250)" fill="#cd252e"><path d="m382 2400c-45-33-72-75-72-115v-25h1015 1015v-620-620h-705-705v-160-160h728c689 0 729 1 762 19 19 10 45 33 58 51l22 33-2 770-3 769-48 44-49 44h-987-988zm1077-1496c12-15 21-34 21-44s-9-29-21-44c-42-53-122-23-122 46 0 64 83 92 122 42z"/><path d="m123 2111c-45-12-81-37-104-74-19-31-19-54-17-956l3-923 48-44 49-44h288 287l46 41c31 27 50 53 57 79s10 334 8 928l-3 889-28 36c-53 70-62 72-347 74-140 1-270-2-287-6zm497-236v-75h-230-230v75 75h230 230zm0-315v-70h-230-230v70 70h230 230zm-362-866c12-4 30-20 38-36 31-59-27-122-89-99-56 22-60 101-7 128 29 15 28 15 58 7z"/><path d="m1170 475c0-73-1-75-27-81-67-16-133-87-133-143v-21h395 395v28c0 16-13 47-29 69-26 35-45 48-103 67-15 4-18 18-18 81v75h-240-240z"/></g></svg>