<svg height="250pt" preserveAspectRatio="xMidYMid meet" viewBox="0 0 250 250" width="250pt" xmlns="http://www.w3.org/2000/svg"><g transform="matrix(.1 0 0 -.1 0 250)" fill="#cd252e"><path d="m576 2483c-4-4-78-21-165-38-231-45-251-64-251-234 0-57 5-121 12-143 15-50 79-123 130-149 121-62 273-12 342 111 31 55 31 56 34 230 3 173 3 175-21 203-23 26-65 36-81 20z"/><path d="m2245 2482c-6-5-80-22-164-38-161-30-196-44-235-97-18-25-21-42-21-145 0-112 1-119 31-172 69-123 221-173 342-111 51 26 115 99 130 149 7 23 12 108 12 209 0 164-1 170-23 191-24 23-56 28-72 14z"/><path d="m1324 2355c-7-19-14-41-14-48 0-11-26-14-122-15-140-1-223-14-251-40-16-14-18-26-13-67 3-27 14-61 25-75 20-28 10-27 198-14l111 7-11-40c-12-44-6-70 19-80 18-7 328 73 362 94 42 26 28 51-105 185-104 104-132 128-156 128-23 0-31-7-43-35z"/><path d="m73 1804c-18-9-42-31-53-49-19-30-20-50-20-277 0-176 3-247 12-256s113-12 404-12c344 0 395 2 408 16 14 13 16 50 16 247 0 260-5 281-69 324-34 23-38 23-350 23-269 0-321-3-348-16z"/><path d="m1729 1797c-64-43-69-64-69-324 0-197 2-234 16-247 13-14 64-16 408-16 291 0 395 3 404 12s12 80 12 256c0 362 25 342-423 342-310 0-314 0-348-23z"/><path d="m1247 1255c-168-34-195-46-235-106-22-32-23-42-20-149 4-125 12-150 70-215 51-58 101-80 188-80 90 0 139 22 193 86 57 66 67 110 67 296 0 230 9 224-263 168z"/><path d="m252 1088c-17-17-17-379 0-396s41-15 83 5l36 17 82-81c101-99 173-153 203-153 27 0 46 17 79 75 31 52 24 76-36 119-22 15-67 53-100 83l-59 55 40 29c40 29 51 58 28 77-33 26-312 182-327 182-9 0-22-5-29-12z"/><path d="m2209 1038c-8-7-32-35-54-63-46-59-116-135-126-135-4 0-16 16-28 35-21 37-58 47-79 23-21-26-182-311-182-323 0-6 8-19 18-28 16-15 45-17 199-17 162 0 182 2 196 18 22 24 21 34-4 77l-21 36 84 87c46 48 98 108 116 135 46 66 41 93-23 134-54 36-73 40-96 21z"/><path d="m902 610c-18-11-41-34-52-52-18-31-20-51-20-274 0-221 2-242 18-257 17-15 59-17 404-17 360 0 386 1 401 18 15 16 17 49 17 258 0 221-2 241-20 272-11 18-34 41-52 52-31 19-51 20-348 20s-317-1-348-20z"/></g></svg>