<svg height="250pt" preserveAspectRatio="xMidYMid meet" viewBox="0 0 250 250" width="250pt" xmlns="http://www.w3.org/2000/svg"><g transform="matrix(.1 0 0 -.1 0 250)" fill="#cd252e"><path d="m1075 2474-25-27v-239c0-145 4-247 10-259 24-44 55-49 300-49h230v-45-45h-610c-589 0-611-1-664-20-67-26-130-85-162-153l-24-52v-676c0-756-2-730 71-813 22-24 63-56 91-70l52-26h911 911l52 26c28 14 69 46 91 70 73 83 71 57 71 813v676l-24 52c-32 68-95 127-162 153-48 17-78 20-239 20h-185v44 45l239 3c238 3 240 3 265 27l26 24v249 249l-25 24-24 25h-576-576zm1050-269v-125h-447-448v125 125h448 447zm41-609 34-34v-659c0-731 4-690-66-719-50-21-1708-21-1758 0-70 29-66-12-66 719v659l34 34 34 34h877 877z"/><path d="m980 1180c0-29-2-30-45-30-123 0-193-93-183-241 9-118 68-180 175-183 53-1 53-1 53-33v-33h55 55v36c0 30 3 35 20 29 29-9 95 12 131 42 47 40 69 96 69 178 0 129-61 205-166 205-53 0-54 0-54 30s-1 30-55 30-55 0-55-30zm0-240v-120h-34c-25 0-40 7-55 25-60 77-23 215 59 215h30zm191 94c21-22 24-35 24-96 0-64-2-72-28-94-16-14-41-24-58-24h-29v120 120h33c23 0 41-8 58-26z"/><path d="m1360 935v-265h61 60l-3 110-3 110h88 87v-110-110h55 55v265 265h-55-55v-105-105h-87-88l3 105 3 105h-60-61z"/></g></svg>