<svg height="1024" viewBox="0 0 1024.0024 1024" width="1024.0024" xmlns="http://www.w3.org/2000/svg"><g fill="#cd252e"><path d="m917.00124 0h-811.2a107.2 105.8 0 0 0 -105.79999934 106.3v811.4a107.2 105.8 0 0 0 106.39999934 106.3h811.2a107.2 105.8 0 0 0 106.39996-106.3v-811.4a107.2 105.8 0 0 0 -106.99996-106.3zm-405.4 935.4a426.2 420.6 0 0 1 -422.899999-423.4 426.2 420.6 0 0 1 422.899999-423.4 426.2 420.6 0 0 1 423.2 423.4 426.2 420.6 0 0 1 -423.2 423.4z"/><path d="m904.20124 511.99999-293.5-135.7 23.58 86.95h-245.2l23.58-86.95-293.5 135.8 293.7 135.7-23.58-86.95h245.2l-23.58 86.95 293.3-135.7"/></g></svg>