<svg height="250pt" preserveAspectRatio="xMidYMid meet" viewBox="0 0 250 250" width="250pt" xmlns="http://www.w3.org/2000/svg"><g transform="matrix(.1 0 0 -.1 0 250)" fill="#cd252e"><path d="m1044 2481c-278-75-494-264-597-522-71-179-79-404-20-584 48-150 156-306 281-406 80-65 223-139 317-165 89-25 302-30 399-10 193 40 372 149 497 305 144 178 208 392 187 628-29 333-261 623-588 734-89 31-106 33-250 36-128 2-167 0-226-16zm233-307c15-4 43-41 83-108 33-55 64-107 68-113 4-7 64-28 132-47 185-50 192-73 69-226l-80-100 7-140c6-127 5-142-11-160-28-30-68-25-187 26l-108 47-108-47c-119-51-159-56-187-26-16 18-17 33-11 160l7 140-80 100c-66 82-81 107-81 135 0 46 18 56 159 94 62 17 115 32 116 33 2 2 31 50 65 108 77 132 87 140 147 124z"/><path d="m183 820c-184-322-198-353-173-400 5-10 23-23 39-28 25-9 65-1 248 48 120 32 227 60 237 62 17 3 26-24 82-230 35-131 70-242 80-253 22-24 84-25 112-2 17 16 362 603 362 618 0 3-15 5-34 5-116 0-367 100-496 198-80 60-183 170-230 245-19 31-37 56-40 56s-87-144-187-319z"/><path d="m2090 1083c-48-76-157-191-238-252-128-94-375-191-488-191-19 0-34-2-34-5 0-15 345-602 362-618 27-23 90-22 112 2 15 17 136 439 136 476 0 11 6 15 18 11 69-20 431-115 447-116 39-4 55 0 75 20 43 43 32 69-162 410-101 175-185 319-188 319s-21-25-40-56z"/></g></svg>