<svg height="250pt" preserveAspectRatio="xMidYMid meet" viewBox="0 0 250 250" width="250pt" xmlns="http://www.w3.org/2000/svg"><g transform="matrix(.1 0 0 -.1 0 250)" fill="#cd252e"><path d="m372 2177-33-34 3-554 3-554 23-43c35-66 88-119 150-149l57-28h545 545l57 28c107 53 178 160 178 269v48h78c226 0 424 138 498 349 29 82 33 237 8 322-48 163-192 306-360 356-54 17-125 18-889 21l-831 2zm1705-262c166-70 210-287 84-413-51-51-88-65-178-70l-83-5v252 251h70c41 0 86-6 107-15z"/><path d="m0 610c0-110 100-244 216-291l59-24 918-3c815-2 924-1 965 13 143 49 243 163 259 295l6 50h-1212-1211z"/></g></svg>