<svg height="512pt" preserveAspectRatio="xMidYMid meet" viewBox="0 0 512 512" width="512pt" xmlns="http://www.w3.org/2000/svg"><g transform="matrix(.1 0 0 -.1 0 512)" fill="#cd252e"><path d="m403 5013c-85-229-117-400-117-623 0-270 58-468 192-660 45-66 1917-1950 1937-1950 5 0 62 52 126 116l116 115 85-93c46-51 426-475 844-943 418-467 776-863 795-879s63-43 99-60c62-30 71-31 190-31s128 1 190 31c166 79 260 230 260 415 0 88-23 172-66 242-15 23-1012 1029-2217 2235l-2192 2192h-101-102z"/><path d="m3480 4553c-584-587-602-607-657-743-27-69-53-178-53-229 0-19-7-61-17-94l-16-59 345-345 345-345 54 15c30 9 85 19 124 22 91 9 181 37 280 88 77 39 105 65 658 616l577 576-110 110-110 110-405-405-405-405-102 103-103 102 405 405 405 405-110 110-110 110-405-405-405-405-100 100-100 100 405 405 405 405-110 110c-60 60-112 110-115 110s-260-255-570-567z"/><path d="m818 1463c-873-874-812-799-813-1008 0-120 0-122 37-196 86-174 252-270 443-256 85 6 153 28 220 73 28 18 378 362 780 764l730 730-320 320c-176 176-322 320-325 320s-341-336-752-747z"/></g></svg>