<svg height="100.716" width="93" xmlns="http://www.w3.org/2000/svg" xmlns:xlink="http://www.w3.org/1999/xlink"><clipPath id="a"><path d="m373.579 495.863c11.149-2 18.375-5.218 18.375-8.841 0-6.074-20.309-11-45.361-11s-45.361 4.925-45.361 11c0 3.637 7.28 6.861 18.5 8.864"/></clipPath><g transform="translate(-300.299 -443.211)"><path d="m307.269 533.5c2.177 5.5 18.952 9.782 39.324 9.782 20.214 0 36.888-4.214 39.272-9.655" fill="#e32c32"/><path d="m364.61 536.564s.956 3.225-1.249 5.43c0 0 15.989-1.272 21.841-7.8a92.088 92.088 0 0 1 -20.592 2.37z" fill="#bd0f20"/><path d="m389 483.338c-5.125-18.38-21.538-32.445-42.4-32.445-20.74 0-39.1 16.085-42.25 32.05" fill="#e32c32"/><path d="m307.029 481.4c2.436-9.183 8.209-19.824 28.616-28.4 0 0-10.618 2.252-21.176 11.739-7.218 6.558-9.652 17.735-9.652 17.735s1.939-.541 2.212-1.074z" fill="#fff"/><path d="m373.579 495.863c11.149-2 18.375-5.218 18.375-8.841 0-6.074-20.309-11-45.361-11s-45.361 4.925-45.361 11c0 3.637 7.28 6.861 18.5 8.864" fill="#d1c0a7"/><g clip-path="url(#a)"><ellipse cx="32.89" cy="15.377" fill="#a18e78" rx="32.89" ry="15.377" transform="translate(314.047 460.056)"/></g><path d="m348.019 451.409c19.794 8.706 22.347 26.254 22.347 26.254a57.386 57.386 0 0 1 18.44 5.181s-4.61-14.576-12.952-20.9-13.309-9.798-27.835-10.535z" fill="#bd0f20"/><path d="m351.24 451.389v-4.438c0-1.708-2.08-3.092-4.647-3.092-2.566 0-4.647 1.384-4.647 3.092v4.465" fill="#e32c32"/><path d="m346.2 443.867a4.519 4.519 0 0 1 1.8 3.672v3.6l3.245.213s.664-5-.284-5.78-1.441-1.421-4.761-1.705z" fill="#bf0a20"/><path d="m317.928 519.275c-10.361 2.038-16.984 5.15-16.984 8.638 0 6.137 20.512 11.113 45.815 11.113s45.814-4.976 45.814-11.113c0-3.339-6.282-6.246-15.89-8.283" fill="#d1c0a7"/><path d="m315.715 520.232s-10.2 2.9-12.528 6.539c-2.728 4.251 8.435 7.088 14.325 9.134 0 0-8.236-.5-13.077-3.693s-3.794-5.641-1.947-7.288 8.735-4.841 13.227-4.692z" fill="#fff"/></g><ellipse cx="46.46" cy="86.525" fill="#a18e78" rx="36.826" ry="9.308"/><g transform="translate(-300.299 -443.211)"><path d="m320.234 518.856-3.116.649a3.566 3.566 0 0 0 -2.162 4.031l.942 7.3a2.271 2.271 0 0 0 2.054 2.219h57.637a2.253 2.253 0 0 0 2.054-2.219l.942-7.3c.363-2.232-1.019-3.826-2.162-4.031l-3.445-.649" fill="#7dcfe5"/><path d="m369.064 519.136s2.375 1.216 4.461 2.2a2.58 2.58 0 0 1 1.506 3.013l-.869 8.168 2.259.174.869-1.216.985-8.98-.637-1.8-1.215-1.2-4.636-.485z" fill="#008494" opacity=".5"/><path d="m324.209 519.136s-2.375 1.216-4.461 2.2a2.58 2.58 0 0 0 -1.506 3.013l.869 8.168-2.259.174-.869-1.216-.983-8.975.637-1.8 1.216-1.2 4.636-.485z" fill="#93d2df" opacity=".3"/><g fill="#343435"><path d="m318.057 519.911-1.5.309c-.968.21-2.395.525-4.176 1.02a39.125 39.125 0 0 0 -6.231 2.241 13.275 13.275 0 0 0 -3.312 2.121 4.223 4.223 0 0 0 -1.114 1.564 2.259 2.259 0 0 0 -.125.893 2.4 2.4 0 0 0 .249.889 8.052 8.052 0 0 0 3.429 2.956 30.6 30.6 0 0 0 4.833 2 76.46 76.46 0 0 0 11.143 2.589 160.834 160.834 0 0 0 24.9 1.887 164.816 164.816 0 0 0 24.922-1.7 83.286 83.286 0 0 0 11.192-2.42 36.806 36.806 0 0 0 4.922-1.829 12.137 12.137 0 0 0 3.893-2.629 3.048 3.048 0 0 0 .826-1.717c0-.063.014-.168.007-.2-.008-.088-.008-.205-.021-.269l-.034-.181-.063-.21a3.256 3.256 0 0 0 -.432-.8 9.238 9.238 0 0 0 -3.025-2.345 34.283 34.283 0 0 0 -6.151-2.4c-1.773-.524-3.192-.861-4.159-1.085l-1.489-.33.269-1.269 1.511.334c.983.228 2.424.571 4.237 1.107a35.5 35.5 0 0 1 6.395 2.495 10.4 10.4 0 0 1 3.46 2.724 4.556 4.556 0 0 1 .611 1.146l.1.33c.026.122.047.251.066.377s.015.2.023.3a2.975 2.975 0 0 1 -.009.376 4.319 4.319 0 0 1 -1.14 2.466 13.311 13.311 0 0 1 -4.322 2.952 38.31 38.31 0 0 1 -5.1 1.9 84.579 84.579 0 0 1 -11.37 2.46 166.149 166.149 0 0 1 -25.122 1.715 162.178 162.178 0 0 1 -25.111-1.9 77.776 77.776 0 0 1 -11.337-2.636 31.9 31.9 0 0 1 -5.044-2.086 14.276 14.276 0 0 1 -2.232-1.459 6.357 6.357 0 0 1 -1.748-2.072 3.676 3.676 0 0 1 -.255-.667 3.434 3.434 0 0 1 -.123-.722 3.567 3.567 0 0 1 .2-1.394 5.483 5.483 0 0 1 1.448-2.076 14.512 14.512 0 0 1 3.64-2.346 40.537 40.537 0 0 1 6.444-2.321c1.821-.506 3.265-.824 4.254-1.039l1.51-.312z"/><path d="m346.593 543.927c-20.8 0-37.591-4.287-39.927-10.192l1.206-.478c1.823 4.607 16.8 9.372 38.721 9.372 19.412 0 36.4-4.07 38.678-9.266l1.188.521c-2.55 5.816-19.316 10.043-39.866 10.043z"/><path d="m373.461 495.226 1.538-.291c.994-.2 2.459-.5 4.3-.96a46.166 46.166 0 0 0 6.458-2.1 17.71 17.71 0 0 0 3.58-1.954c1.1-.828 2.188-1.95 1.928-3.3a3.465 3.465 0 0 0 -1.053-1.742 9.91 9.91 0 0 0 -1.949-1.458 26.42 26.42 0 0 0 -4.878-2.145 73.5 73.5 0 0 0 -11.385-2.708 160.51 160.51 0 0 0 -25.47-1.9c-4.368.007-8.71.153-12.989.466s-8.467.786-12.486 1.452a72.332 72.332 0 0 0 -11.37 2.726 25.409 25.409 0 0 0 -4.862 2.168 9.115 9.115 0 0 0 -1.926 1.477 3.254 3.254 0 0 0 -.99 1.8l-.027.233v.029c0-.069 0 0 0 0v.076l.01.152a1.992 1.992 0 0 0 .1.435 2.969 2.969 0 0 0 .451.869 6.712 6.712 0 0 0 1.507 1.436 18.4 18.4 0 0 0 3.6 1.932 47.129 47.129 0 0 0 6.466 2.087c1.838.46 3.3.758 4.3.953l1.534.288-.228 1.277-1.554-.291c-1.013-.2-2.5-.5-4.368-.969a48.384 48.384 0 0 1 -6.65-2.149 19.565 19.565 0 0 1 -3.858-2.078 7.965 7.965 0 0 1 -1.8-1.728 4.256 4.256 0 0 1 -.636-1.235 3.482 3.482 0 0 1 -.153-.746l-.009-.152-.005-.076v-.079-.047l.037-.376a4.53 4.53 0 0 1 1.34-2.535 10.419 10.419 0 0 1 2.19-1.689 26.776 26.776 0 0 1 5.112-2.285 73.731 73.731 0 0 1 11.58-2.779c4.067-.674 8.3-1.151 12.6-1.466s8.7-.462 13.075-.469a161.589 161.589 0 0 1 25.69 1.914 74.652 74.652 0 0 1 11.584 2.759 27.649 27.649 0 0 1 5.12 2.258 11.188 11.188 0 0 1 2.207 1.657 4.619 4.619 0 0 1 1.424 2.524l.032.3.015.152s.007.156 0 .111v.047l-.006.094a3.366 3.366 0 0 1 -.116.733 4.089 4.089 0 0 1 -.6 1.262 7.5 7.5 0 0 1 -1.772 1.767 18.977 18.977 0 0 1 -3.847 2.108 47.508 47.508 0 0 1 -6.645 2.166c-1.872.473-3.353.777-4.368.977l-1.549.292z"/><path d="m388.38 483.536-.394-1.222a33.233 33.233 0 0 0 -1.2-3.39c-.3-.7-.584-1.5-.991-2.332s-.871-1.725-1.355-2.683q-.832-1.375-1.768-2.924c-.692-.983-1.426-2.015-2.218-3.07a44.491 44.491 0 0 0 -5.916-6.116 42.137 42.137 0 0 0 -3.681-2.84c-.637-.474-1.352-.846-2.035-1.282a20.85 20.85 0 0 0 -2.131-1.209l-2.229-1.117c-.771-.326-1.559-.628-2.345-.947-.4-.152-.784-.33-1.189-.462l-1.228-.375c-.825-.235-1.636-.54-2.483-.72l-2.549-.549c-.214-.043-.426-.1-.641-.133l-.65-.082-1.3-.166a47.467 47.467 0 0 0 -5.258-.366l-.164-.007h-.042c-.02 0 .031 0-.01 0h-.084l-.334.016-.669.032-1.338.064-1.336.064c-.435.049-.862.121-1.293.179-.859.128-1.718.236-2.573.375l-2.537.6c-.419.11-.849.175-1.256.319l-1.226.4c-.811.282-1.64.5-2.423.83a46.018 46.018 0 0 0 -4.573 2.083 47.288 47.288 0 0 0 -7.971 5.18l-1.7 1.458c-.276.243-.565.467-.823.721l-.761.762-1.485 1.483c-.465.505-.889 1.03-1.322 1.527s-.873.975-1.237 1.49l-1.084 1.5a30.132 30.132 0 0 0 -1.842 2.866 24.727 24.727 0 0 0 -1.39 2.649c-.2.417-.407.81-.573 1.2l-.42 1.133c-.255.721-.531 1.35-.686 1.922l-.374 1.459-.312 1.215-1.273-.251.325-1.273.392-1.527c.163-.6.449-1.254.715-2.005l.439-1.181c.173-.4.388-.812.593-1.245a26.183 26.183 0 0 1 1.441-2.746 31.509 31.509 0 0 1 1.9-2.962l1.12-1.544c.376-.532.842-1.011 1.273-1.536.446-.512.884-1.052 1.363-1.571l1.531-1.53.783-.782c.266-.261.562-.492.845-.742l1.747-1.5a48.518 48.518 0 0 1 8.19-5.323 47.519 47.519 0 0 1 4.7-2.142c.806-.337 1.659-.565 2.494-.855l1.263-.413c.419-.148.862-.217 1.293-.329l2.615-.614c.891-.146 1.795-.261 2.695-.392.451-.061.9-.134 1.353-.184l1.336-.064c.906-.033 1.749-.1 2.709-.108a49.065 49.065 0 0 1 5.411.375l1.341.172.669.085c.222.037.441.092.66.137l2.627.565c.872.186 1.708.5 2.558.741l1.265.388c.418.136.819.318 1.227.475.81.328 1.622.641 2.416.977l2.3 1.151a21.833 21.833 0 0 1 2.2 1.246c.7.448 1.439.833 2.1 1.322a43.026 43.026 0 0 1 3.793 2.925 45.668 45.668 0 0 1 6.091 6.3c.816 1.085 1.572 2.148 2.283 3.16l1.821 3.01 1.394 2.76c.42.859.717 1.7 1.032 2.43a34.474 34.474 0 0 1 1.219 3.445l.394 1.222z"/><path d="m320.159 519.492-1.052.218-1.263.263-.8.167.038-.009h-.013l-.027.008-.053.016c-.032.01-.077.021-.1.031a1.092 1.092 0 0 1 -.1.05 2.346 2.346 0 0 0 -.3.192 3.034 3.034 0 0 0 -.975 1.448 3.381 3.381 0 0 0 -.153 1.018 4.32 4.32 0 0 0 .036.562l.086.666c.233 1.806.5 3.844.784 6.067l.054.419.026.189c.012.065.023.153.036.192a2.462 2.462 0 0 0 .228.628 1.382 1.382 0 0 0 .9.756 1.534 1.534 0 0 0 .319.026h57.5s.074 0 .022 0h.057a.933.933 0 0 0 .183-.017 1.051 1.051 0 0 0 .253-.078 1.6 1.6 0 0 0 .8-.942 2.938 2.938 0 0 0 .163-.694l.109-.842.783-6.067.081-.659a3.579 3.579 0 0 0 0-.528 3.34 3.34 0 0 0 -.222-1 2.607 2.607 0 0 0 -1.083-1.292 1.125 1.125 0 0 0 -.3-.12l-.067-.018-.113-.022-.218-.041-.8-.152-1.267-.238-1.056-.2.24-1.275 1.056.2 1.267.238.8.152.218.041.11.021.156.038a2.427 2.427 0 0 1 .587.235 3.879 3.879 0 0 1 1.667 1.947 4.6 4.6 0 0 1 .314 1.392 4.945 4.945 0 0 1 -.005.769l-.083.675c-.233 1.806-.5 3.844-.784 6.067l-.108.842a4.26 4.26 0 0 1 -.236.986 2.886 2.886 0 0 1 -1.484 1.671 2.249 2.249 0 0 1 -.617.178 2.091 2.091 0 0 1 -.272.026h-.151-57.5a2.958 2.958 0 0 1 -.586-.053 2.679 2.679 0 0 1 -1.777-1.413 3.742 3.742 0 0 1 -.359-1c-.024-.1-.029-.153-.042-.228l-.033-.232-.054-.419-.783-6.067-.086-.666a5.716 5.716 0 0 1 -.047-.733 4.717 4.717 0 0 1 .213-1.4 4.324 4.324 0 0 1 1.419-2.084 3.7 3.7 0 0 1 .5-.321c.1-.048.21-.094.314-.135l.269-.079.8-.167 1.263-.263 1.051-.219z"/><path d="m342.6 451.416h-1.3v-4.465c0-2.1 2.326-3.74 5.3-3.74s5.3 1.643 5.3 3.74v4.438h-1.3v-4.438c0-1.324-1.831-2.443-4-2.443s-4 1.119-4 2.443z"/></g><path d="m375.5 516.022-2.473-32.422a2.6 2.6 0 0 0 -2.588-2.4h-46.825a2.6 2.6 0 0 0 -2.587 2.4l-2.472 32.426a2.594 2.594 0 0 0 2.587 2.792h51.77a2.594 2.594 0 0 0 2.588-2.796z" fill="#4fb1c8"/><path d="m321.664 481.915-.972 2.491a10.8 10.8 0 0 0 2.379 1.094 14.768 14.768 0 0 0 2.3.527l42.534-.336 2.309 28.723a3.9 3.9 0 0 1 2.61.893 6.131 6.131 0 0 1 2.16 3.079l-2.116-34.26a3 3 0 0 0 -1.255-2.259 5.09 5.09 0 0 0 -2.7-.5z" fill="#008494" opacity=".5"/><path d="m325.405 485.908-2.5 28.238 47.248.325-1.9-28.933z" fill="#7dcfe5"/><path d="m367.98 486.482-.079-.791-41.054.039.01-.089-1.346-.159-2.336 28.746.572-.1 5.54-21.121a4.262 4.262 0 0 1 3.712-3.16z" fill="#93d2df" opacity=".3"/><path d="m367.98 486.482-.079-.791-41.054.039.01-.089-1.346-.159-2.336 28.746.572-.1 3.24-26.509z" fill="#fff"/><path d="m374.538 516.108s-.855-11.214-2.138-28.034l-.245-3.218a14.368 14.368 0 0 0 -.152-1.533 1.945 1.945 0 0 0 -1.893-1.44h-46.182a6.864 6.864 0 0 0 -.954.03 1.95 1.95 0 0 0 -1.584 1.549c-.015.064-.017.131-.027.2l-.021.255-.04.525-.161 2.1c-.427 5.606-.855 11.213-1.276 16.732q-.315 4.14-.625 8.2-.154 2.029-.308 4.031l-.038.5a2.478 2.478 0 0 0 0 .421 1.968 1.968 0 0 0 .2.7 1.939 1.939 0 0 0 1.087.964 2.143 2.143 0 0 0 .75.114h51.5c.044 0 .153 0 .143 0l.174-.009a1.62 1.62 0 0 0 .247-.032 1.93 1.93 0 0 0 1.094-.65 1.925 1.925 0 0 0 .448-1.016 2.818 2.818 0 0 0 .001-.389zm1.293-.1.005.162a2.961 2.961 0 0 1 -.021.481 3.214 3.214 0 0 1 -.746 1.7 3.262 3.262 0 0 1 -1.082.834 3.177 3.177 0 0 1 -.757.251 3.543 3.543 0 0 1 -.423.054l-.173.009h-51.711a3.477 3.477 0 0 1 -1.186-.191 3.232 3.232 0 0 1 -2.142-2.821 3.586 3.586 0 0 1 .006-.579l.038-.5.307-4.031q.311-4.058.626-8.2c.421-5.519.848-11.126 1.276-16.733l.16-2.1.04-.526.022-.27c.015-.108.023-.218.046-.325a3.245 3.245 0 0 1 2.667-2.589 7.714 7.714 0 0 1 1.145-.044h46.182a3.242 3.242 0 0 1 3.147 2.406l.062.281.028.215c.023.2.025.294.038.445l.063.824q.126 1.641.246 3.219c1.282 16.82 2.137 28.029 2.137 28.029z" fill="#343435"/><path d="m367.72 486.234h-41.927c-.045 0-.015 0-.026 0l-.015.189-.031.4q-.125 1.588-.25 3.207c-.336 4.314-.684 8.772-1.037 13.3q-.264 3.4-.533 6.839-.133 1.719-.268 3.443l-.017.216c0-.048 0 .087 0 .039 0-.024 0-.023 0-.023h46.111c.154 0 .171-.005.145 0 0-.006 0 .015 0-.017l-.014-.175q-.217-2.79-.419-5.383c-.538-6.9-.987-12.654-1.3-16.68l-.365-4.673zm0-1.3a1.276 1.276 0 0 1 .787.265 1.3 1.3 0 0 1 .505.873l.06.744.364 4.674c.314 4.026.762 9.777 1.3 16.679q.2 2.589.42 5.384l.013.174a1.3 1.3 0 0 1 -.306.961 1.3 1.3 0 0 1 -.576.39 1.338 1.338 0 0 1 -.346.066h-.212-46.129a1.308 1.308 0 0 1 -1.274-1.418l.016-.216q.135-1.723.269-3.443.267-3.437.533-6.839c.353-4.529.7-8.987 1.036-13.3q.126-1.617.25-3.207l.031-.4.017-.206a1.3 1.3 0 0 1 1.318-1.185h41.924z" fill="#343435"/><path d="m348.972 523.67s-2.693.492-3.018.579c-.728.142-.9.489-1.022 1.148-.261 1.156-.7 2.916-.7 2.916s-.586-.147-.6-1.043-.245-3.046.244-3.7 3.467-.34 5.096.1z" fill="#fff"/><path d="m348.163 529.795h-2.955a2.3 2.3 0 0 1 -2.3-2.3v-2.955a2.3 2.3 0 0 1 2.3-2.3h2.955a2.3 2.3 0 0 1 2.3 2.3v2.96a2.3 2.3 0 0 1 -2.3 2.295zm-2.955-6.255a1 1 0 0 0 -1 1v2.96a1 1 0 0 0 1 1h2.955a1 1 0 0 0 1-1v-2.955a1 1 0 0 0 -1-1z" fill="#343435"/></g></svg>