<svg height="213pt" preserveAspectRatio="xMidYMid meet" viewBox="0 0 250 213" width="250pt" xmlns="http://www.w3.org/2000/svg" fill="currentColor"><g transform="matrix(.1 0 0 -.1 0 213)"><path d="m132 2104c-59-29-105-84-123-143-7-24-9-289-7-792l3-756 30-49c36-58 103-103 170-112 43-6 48-10 59-43 31-89 104-166 184-193 56-19 173-20 225-2 87 32 163 110 189 198l11 38h377 377l11-38c26-88 102-166 189-198 52-18 169-17 225 2 80 27 153 104 184 193 11 33 16 37 59 43 67 9 134 54 170 112l30 49 3 302 3 301-99 244c-107 265-139 316-216 351-37 17-72 19-363 19h-322l-3 168c-3 168-3 169-33 218-19 30-49 60-79 79l-49 30-576 3-576 2zm759-254c211-65 350-254 350-476 0-141-54-260-165-361-244-223-619-148-768 154-39 79-43 92-46 184-5 119 17 203 76 294 119 185 348 269 553 205zm-245-1454c28-28 34-42 34-75 0-80-44-126-121-126-78 0-133 78-110 156 15 50 59 79 120 79 36 0 49-6 77-34zm1361 14c21-13 36-32 44-58 31-103-70-192-165-147-44 21-66 59-66 116 0 33 6 47 34 75s41 34 78 34c25 0 56-8 75-20z"/><path d="m751 1553-112-187 141-141 140-140 62 63 63 62-88 88c-48 48-87 91-87 96s32 62 70 127c39 65 70 122 70 126 0 7-132 93-143 93-3 0-55-84-116-187z"/></g></svg>