<svg height="250pt" preserveAspectRatio="xMidYMid meet" viewBox="0 0 250 250" width="250pt" xmlns="http://www.w3.org/2000/svg"><g transform="matrix(.1 0 0 -.1 0 250)" fill="#d03239"><path d="m467 2489c-34-20-47-64-47-159v-90h-26c-41 0-93-30-120-69-24-35-24-39-24-254 0-239 3-252 60-301 22-18 43-26 71-26h39v-50c0-45 3-52 26-62 23-11 29-10 45 11 17 20 19 41 19 162v139h254 254l33 27c47 40 59 78 59 195 0 128-19 176-84 207-46 23-125 28-157 11-21-12-25-50-7-68 7-7 38-12 69-12 84 0 89-8 89-139 0-91-3-110-18-124-16-14-59-17-340-19l-322-3v130c0 89 4 135 12 143s67 12 198 12c195 0 210 3 210 45 0 39-18 45-139 45h-116l3 90 3 90h573 573l44-23c67-36 100-90 109-179 11-118 30-138 141-148 84-8 136-35 174-89l30-43 3-929 2-929h-825-825v634c0 606-1 635-19 657-16 21-22 22-45 11l-26-12v-645c0-692 0-688 49-715 13-7 305-10 868-10 788 0 849 2 869 18 12 9 27 27 33 39 8 15 11 291 11 968 0 1050 3 998-67 1144-47 98-159 212-259 264-132 68-119 67-814 67-406-1-631-4-643-11zm1532-212c41-39 125-156 118-164-2-1-22 6-46 17-23 12-70 23-105 27l-63 6-5 61c-3 34-15 83-26 108l-20 46 51-30c29-16 72-48 96-71z"/><path d="m936 1459c-24-19-26-26-26-94s2-75 26-94c26-21 36-21 544-21s518 0 544 21c24 19 26 26 26 94s-2 75-26 94c-26 21-36 21-544 21s-518 0-544-21zm1034-94v-25h-490-490v25 25h490 490z"/><path d="m635 1150c-19-21-31-95-21-135 4-14 15-34 26-45 20-20 36-20 695-20h674l21 22c16 17 20 35 20 90 0 91-17 110-97 106-40-2-59-8-67-20-17-27 4-52 48-56 33-3 36-6 36-33v-29h-635-635v30 30h540 541l8 23c5 12 5 30-1 40-8 16-46 17-572 17-546 0-563-1-581-20z"/><path d="m642 850c-12-11-25-32-28-46-11-43 2-115 25-138l22-21h675 676l19 24c15 18 19 39 19 91 0 62-2 71-26 89-26 21-34 21-693 21-656 0-668 0-689-20zm1328-92v-28h-635-635v28 27h635 635z"/><path d="m660 557c-62-31-69-159-11-204 12-9 144-12 539-13h523l24 25c21 20 25 34 25 84 0 128 33 121-572 121-383 0-509-3-528-13zm1020-102v-25h-490-490v25 25h490 490z"/></g></svg>