<svg height="250pt" preserveAspectRatio="xMidYMid meet" viewBox="0 0 250 250" width="250pt" xmlns="http://www.w3.org/2000/svg"><g transform="matrix(.1 0 0 -.1 0 250)" fill="#d03239"><path d="m1133 2485c-29-8-68-21-88-29-32-14-39-13-82 6-74 33-228 37-313 8-154-51-266-166-320-326-58-174 17-396 174-513l46-35v-108-108l34-38c32-34 40-37 101-42l67-5 22-60c12-33 36-80 53-105 34-49 126-140 161-159 18-10 22-20 22-62 0-61-22-112-60-139-16-11-90-35-167-54-76-18-162-45-192-60-105-54-189-167-211-285-14-78-13-344 2-359 9-9 221-12 894-12 485 0 889 3 898 6 14 5 16 31 16 179 0 195-12 248-75 341-70 102-145 144-338 191-77 18-151 42-167 53-38 27-60 78-60 140 0 52 0 53 71 118 50 46 81 68 102 70 83 9 176 110 177 190 0 12 6 22 13 22 18 0 64 49 76 83 6 16 11 91 11 167 0 203-27 254-142 267-29 3-58 12-65 20-14 18-41 14-128-17-92-34-255-39-365-11-161 40-262 101-382 227-108 113-105 106-68 158 26 36 30 47 21 64-21 39-43 36-84-9-84-94-142-234-153-367-6-68-10-83-26-88-23-7-58-60-58-89-1-32-77 59-114 135-28 59-31 74-31 160 1 120 25 187 97 266 93 101 239 151 363 124 33-7 54-15 47-17-22-8-34-41-22-63 15-28 39-25 106 15 120 72 270 100 384 71 199-51 365-225 450-473 36-102 56-121 93-85l20 21-36 101c-52 148-108 241-203 335-139 139-261 195-424 194-52 0-118-7-147-14zm-306-476c32-33 59-64 61-67 3-10-84-66-132-86l-39-16 5 58c5 49 36 172 44 172 1 0 29-27 61-61zm182-159c209-133 461-171 690-104l24 7-5-209c-5-176-9-218-26-265-38-106-23-99-217-99-181 0-195-3-195-47 0-37 31-44 164-41 68 2 122 0 120-4-13-21-98-69-155-88-53-18-81-21-159-18-81 3-105 8-162 35-76 36-153 103-197 171-53 85-63 136-68 377l-5 220 68 47c38 26 71 48 73 48s25-13 50-30zm-269-290v-180h-33c-18 0-43 7-55 16-21 14-22 22-22 160 0 81 5 154 10 165 8 14 21 19 55 19h45zm1160 161c5-11 10-84 10-165 0-138-1-146-22-160-12-9-37-16-55-16h-33v180 180h45c34 0 47-5 55-19zm-630-831c36 0 92 7 123 15 72 19 67 19 67-8 0-55 32-129 73-171 44-43 67-55 152-78l50-14-68-71c-111-116-232-167-392-166-72 0-105 6-165 27-111 40-126 42-140 16-17-31-7-46 49-75 70-35 162-55 258-55 110 0 172 14 273 62 67 32 100 57 160 117 41 42 84 88 95 103 20 26 21 26 66 12 72-22 140-74 177-135 46-76 52-106 52-256v-133h-119-120l-3 51c-6 96-70 96-76 0l-3-51h-499-499l-3 51c-6 96-70 96-76 0l-3-51h-120-119v133c0 90 5 149 15 183 30 99 111 177 218 209l43 13 54-69c56-71 89-91 115-69 24 20 18 38-31 98l-47 57 39 12c22 6 46 12 55 12 29 2 108 60 134 99 14 21 31 66 37 99l11 59 51-13c28-7 80-13 116-13z"/><path d="m1078 1325c-10-22-8-29 13-51 80-85 221-95 326-23 36 25 44 36 41 56-4 34-32 52-55 36-89-63-165-70-234-23-54 36-76 38-91 5z"/></g></svg>