<svg height="250pt" preserveAspectRatio="xMidYMid meet" viewBox="0 0 250 250" width="250pt" xmlns="http://www.w3.org/2000/svg"><g transform="matrix(.1 0 0 -.1 0 250)" fill="#d03239"><path d="m440 2132c-118-40-214-111-282-211-50-71-88-194-88-280 0-169 93-333 244-432 190-125 455-100 619 57 266 254 202 672-127 835-85 42-90 43-199 46-88 2-124-1-167-15zm283-91c354-122 385-612 49-778-74-37-79-38-186-38-104 0-115 2-179 32-256 121-323 454-136 667 105 119 299 169 452 117z"/><path d="m499 1984c-61-18-136-86-165-149-47-100-26-211 66-348 58-87 166-207 186-207 37 0 191 196 242 308 60 130 39 248-60 337-77 70-170 90-269 59zm192-109c80-53 103-159 56-254-28-55-90-147-134-199l-28-32-58 72c-119 150-150 253-106 345 47 98 176 131 270 68z"/><path d="m540 1833c-54-20-89-92-70-148 28-85 127-113 194-54 61 53 58 130-6 184-29 24-80 32-118 18z"/><path d="m1170 1645v-45h95 95v-295-295h45 45v295 295h200 200l38-35 37-34-97-1c-88 0-100-2-125-24l-28-24v-212-212l28-24 28-24h305 304v-158c0-110-4-162-12-170-7-7-30-12-52-12-41 0-41 1-74 71-51 107-130 157-253 158-115 2-218-71-257-181l-17-48h-270-271l-11 43c-16 58-85 134-148 163-69 33-161 33-230 0-63-29-132-105-148-163l-11-43h-48c-37 0-50 4-58 19-6 12-10 93-10 195v176h-46-46l4-192c3-139 7-201 17-221 22-43 70-67 134-67 54 0 55 0 61-34 4-18 19-51 34-72l29-39-294 3-293 3v-46-45l973 1c717 0 980 4 1004 12 71 27 120 73 155 146l33 71h48c57 0 98 19 126 59 20 27 21 42 21 268v239l-260 259c-143 143-272 265-288 272-19 9-125 12-369 13h-343zm1007-367c90-90 163-166 163-170 0-5-130-8-290-8h-290v170 170h127 128zm-1227-488c93-48 126-179 67-268-39-60-94-85-172-80-76 5-122 35-154 101-46 95-11 202 84 251 43 22 127 20 175-4zm1089 2c19-9 48-34 65-55 72-90 30-246-77-286-48-19-125-13-169 11-120 68-122 252-3 324 50 30 133 33 184 6zm-354-241c3-16 19-48 34-72l27-44h-341-342l29 39c15 21 30 54 34 72l6 34h273 273z"/><path d="m70 745v-45h105 105v45 45h-105-105z"/></g></svg>