<svg height="250pt" preserveAspectRatio="xMidYMid meet" viewBox="0 0 250 250" width="250pt" xmlns="http://www.w3.org/2000/svg"><g transform="matrix(.1 0 0 -.1 0 250)" fill="#d03239"><path d="m7 2493c-4-3-7-201-7-440v-433h45 45v395 395h1160 1160v-450-450h-730-730v-50-50h764c632 0 765 2 775 14 8 9 10 160 9 542l-3 529-1241 3c-682 1-1244-1-1247-5z"/><path d="m529 2312c-99-52-144-168-102-263l20-45-30-2c-69-6-165-68-206-135-27-45-141-442-141-493 0-83 88-147 171-124 49 14 87 58 109 126l18 59 1-272 1-272-35 15c-90 37-204 4-260-74-40-59-47-151-15-217 12-25 26-45 31-45s-9-16-31-36c-23-21-44-52-50-73-7-22-10-118-8-246l3-210 240-3c217-2 241-1 252 15 9 12 13 69 13 198 0 196-10 258-51 301l-22 24h148 148l-21-23c-46-49-52-84-52-295 0-141 3-201 12-210 17-17 469-17 486 0 9 9 12 72 12 220 0 189-2 212-20 248-11 22-34 49-50 62-26 19-28 23-15 38 24 26 45 87 45 130 0 111-97 210-205 210h-45v423 422l210 108c218 112 243 131 255 197 8 48-28 117-75 142-56 30-98 19-278-76-90-47-164-86-166-86s1 17 7 38c22 84-27 182-114 226-70 34-122 34-190-2zm177-106c29-29 34-41 34-81s-5-52-34-81-41-34-81-34-52 5-81 34-34 41-34 81 5 52 34 81 41 34 81 34 52-5 81-34zm534-91c31-38 7-56-222-175l-223-115-3-469-2-469-29-32c-46-53-66-118-54-176 9-47 9-49-14-49h-23v355 355h-45-45v-355-355h-62-63l3 575 2 575-25 12c-42 19-57-7-125-225-35-111-68-208-73-214-13-18-52-16-68 3-11 13-3 49 50 232 92 319 95 321 371 322l175 1 210 109c116 60 220 110 231 110 12 0 27-7 34-15zm-906-1324c26-27 31-39 31-81 0-43-5-54-33-82s-39-33-82-33-54 5-82 33-33 39-33 81c0 52 25 92 70 112 37 16 96 3 129-30zm647 16c47-31 66-91 45-141-16-38-67-76-104-76-40 0-90 28-106 59-59 114 61 228 165 158zm-600-346 29-29v-171-171h-160-160v171 171l29 29c29 28 32 29 131 29s102-1 131-29zm654 13c37-24 45-65 45-230v-154h-162-163l5 176 5 176 28 24c25 22 37 24 123 24 69 0 101-4 119-16z"/><path d="m1370 2250v-50h420 420v50 50h-420-420z"/><path d="m1490 2000v-50h425 425v50 50h-425-425z"/><path d="m1330 1750v-50h420 420v50 50h-420-420z"/><path d="m1495 904c-75-38-124-115-125-192 0-45 21-105 45-132 13-15 11-19-15-38-16-13-39-40-50-62-18-36-20-59-20-248 0-148 3-211 12-220 17-17 469-17 486 0 9 9 12 70 12 213 0 195-1 203-25 252-14 28-37 58-50 67l-24 16 24 42c32 59 39 101 25 157-14 58-58 115-111 141-47 25-141 27-184 4zm140-88c38-16 65-60 65-106 0-66-55-120-122-120-37 0-88 38-104 76-21 50-2 110 45 141 39 27 68 29 116 9zm72-350 28-24 5-176 5-176h-162-163v161c0 225 9 238 162 239 88 0 99-2 125-24z"/><path d="m2149 897c-64-34-102-93-107-166-5-66 9-120 38-146 18-16 18-18-16-47-65-57-68-71-72-295-3-137 0-208 8-222 11-21 15-21 253-19l242 3 3 210c2 128-1 224-8 246-6 21-27 52-50 73-22 20-36 36-31 36s19 20 31 45c32 66 25 158-15 217-41 57-103 88-175 88-40 0-70-7-101-23zm185-106c26-27 31-39 31-81 0-43-5-54-33-82s-39-33-82-33-54 5-82 33-33 39-33 81c0 52 25 92 70 112 37 16 96 3 129-30zm47-330 29-29v-171-171h-160-160v171 171l29 29c29 28 32 29 131 29s102-1 131-29z"/></g></svg>