<svg height="250pt" preserveAspectRatio="xMidYMid meet" viewBox="0 0 250 250" width="250pt" xmlns="http://www.w3.org/2000/svg"><g transform="matrix(.1 0 0 -.1 0 250)" fill="#d03239"><path d="m412 2488c-17-17-17-2249 0-2266 9-9 123-12 450-12 427 0 438 0 448 20 8 14 8 26 0 40-10 19-21 20-415 20h-405v1065 1065h615 615v-133c0-90 4-137 12-145s55-12 145-12h133v-920-919l-111-3c-94-3-114-6-123-20-8-13-8-23 0-35 10-16 31-18 154-21 96-2 147 1 156 9 12 10 14 168 14 988v976l-158 158-157 157h-681c-515 0-683-3-692-12z"/><path d="m834 2226c-28-28-34-42-34-76 0-35-3-41-18-36-10 4-27 0-37-8-16-12-22-39-36-172-10-98-13-166-7-176 8-16 28-18 208-18 182 0 200 2 209 18 11 21-14 331-28 345-5 5-21 10-35 10-21 2-26 7-26 30 0 66-54 117-126 117-28 0-44-8-70-34zm190-263c4-38 9-85 11-105l5-38h-127-128l9 105 10 105h107 107z"/><path d="m702 1443c-6-10-6-28-1-40l8-23h541 541l8 23c5 12 5 30-1 40-8 16-45 17-548 17s-540-1-548-17z"/><path d="m706 1248c-13-19-14-25-2-43 13-20 21-20 546-20s533 0 546 20c12 18 11 24-2 43l-15 22h-529-529z"/><path d="m700 1050c-8-14-8-26 0-40 11-20 21-20 550-20s539 0 550 20c8 14 8 26 0 40-11 20-21 20-550 20s-539 0-550-20z"/><path d="m706 858c-13-19-14-25-2-43 13-19 24-20 249-23 204-2 237 0 251 14 20 20 20 38 0 58-13 14-50 16-249 16-230 0-234 0-249-22z"/><path d="m1451 763c-63-22-134-96-156-162-30-92-9-187 56-256l28-30 3-155 3-155 28-3c20-3 41 7 78 37l51 40 52-39c29-22 62-40 72-40 39 0 44 18 44 170 0 143 1 147 24 170 42 38 68 108 68 176 1 183-178 308-351 247zm176-90c68-32 108-131 84-206-25-74-95-126-170-127-146-1-228 190-128 299 47 51 146 67 214 34zm-44-413 37 8v-70-70l-34 26c-19 14-39 26-45 26s-26-14-46-31l-35-31v75 74l43-8c24-4 60-4 80 1z"/><path d="m1464 596c-106-106 49-263 157-160 76 73 27 194-78 194-38 0-50-5-79-34z"/></g></svg>