<svg height="250pt" preserveAspectRatio="xMidYMid meet" viewBox="0 0 250 250" width="250pt" xmlns="http://www.w3.org/2000/svg"><g fill="#d03239" transform="matrix(.1 0 0 -.1 0 250)"><path d="m1330 2481c-5-11-10-36-10-56 0-33-2-35-24-29-41 10-234-16-320-43-301-95-541-329-642-627-97-285-61-616 94-856 108-167 340-429 617-697 136-131 186-173 205-173s81 54 268 236c133 130 247 245 253 256 8 15 7 24-7 39-29 32-49 22-118-53-83-91-384-378-397-378-16 0-354 337-487 485-279 311-362 461-392 705-46 379 159 762 495 929 111 55 215 81 348 88l107 6v-37c0-35-1-36-40-36-56 0-82-28-78-83l3-42-81-16c-45-10-110-29-143-45-58-26-62-29-59-58 4-42 31-44 112-12 35 14 87 28 117 32l54 6v-256-256h-42-43v159c0 132-3 162-16 175-20 20-38 20-58 0-13-13-16-43-16-175v-159h-30-30v76c0 86-11 114-43 114-39 0-47-19-47-107v-83h-68c-40 0-73-5-80-12-9-9-12-73-13-223l-1-210-28 60c-58 121-73 281-39 423 20 84 84 203 148 275 34 37 61 70 61 73s-5 14-10 25c-20 36-55 23-112-40-70-77-122-167-155-266-25-72-27-94-27-225s2-153 27-225c72-216 235-384 446-459 80-29 96-31 221-31s141 2 221 31c212 75 376 244 446 459 20 61 27 107 30 195 7 172-28 299-118 435l-50 74 3 132 3 133 70-69c206-204 309-493 275-775-26-207-98-362-267-573-69-85-77-111-37-129 25-12 29-10 61 27 116 133 219 292 264 408 103 267 90 577-36 827-87 174-257 351-412 429l-42 21-3 98-3 97-157 3c-147 2-158 1-168-17zm250-153v-93h-85-85v93 92h85 85zm120-777v-598l-48-45c-83-77-188-128-306-146l-56-9v699 698h205 205zm152-16c29-131 8-317-47-424l-24-46v325l1 325 28-60c15-33 34-87 42-120zm-652-446v-336l-47 8c-121 22-225 72-305 147l-48 45v236 236h200 200z"/><path d="m1396 1954c-19-18-20-28-6-55 9-17 22-19 100-19 67 0 92 4 104 16 21 20 20 37-2 57-26 24-173 24-196 1z"/><path d="m1392 1668c-7-7-12-19-12-28 0-32 23-40 116-40 104 0 126 11 106 55-11 24-15 25-105 25-59 0-97-4-105-12z"/><path d="m1396 1384c-19-18-20-28-6-55 9-17 22-19 106-19 91 0 95 1 106 25 9 21 8 28-7 45s-31 20-101 20c-62 0-87-4-98-16z"/><path d="m1392 1098c-7-7-12-19-12-28 0-32 23-40 117-40 82 0 93 2 103 20 8 14 8 26 0 40-10 18-21 20-103 20-59 0-97-4-105-12z"/></g></svg>