<svg height="250pt" preserveAspectRatio="xMidYMid meet" viewBox="0 0 250 250" width="250pt" xmlns="http://www.w3.org/2000/svg"><g transform="matrix(.1 0 0 -.1 0 250)" fill="#d03239"><path d="m682 2475c-162-82-156-355 12-513l55-52h-317c-248-1-321-4-335-14-15-12-17-36-17-241 0-259-2-254 83-255h47v-623-624l23-44c14-27 42-57 71-77l48-32h890c992 0 924-5 992 70 19 21 39 56 45 77 7 25 11 248 11 646v607h41c82 0 79-9 79 253 0 168-3 236-12 245s-96 12-331 12h-318l48 48c162 157 179 405 35 507-39 27-53 30-132 33-106 5-162-11-250-69-62-42-134-128-177-213l-25-49-27 49c-70 128-142 203-239 251-47 23-73 28-152 31-87 3-99 1-148-23zm272-99c31-15 73-48 96-74 74-84 149-237 168-340l10-53-157 3-156 3-67 43c-125 80-188 181-188 300 0 68 25 116 73 138 49 22 154 13 221-20zm811 20c48-20 69-66 69-147 0-118-69-219-205-301l-63-38h-121-122l-12 71-13 70 40 82c43 90 99 169 144 206 76 61 208 88 283 57zm-775-736v-160h-405-405v160 160h405 405zm420 0v-160h-160-160v160 160h160 160zm910-2v-163l-410 3-410 2v160 160h410 410zm-1240-913v-655h-345c-384 0-389 1-419 64-14 30-16 100-16 640v606h390 390zm240 0v-655h-75-75v655 655h75 75zm870 35v-620l-29-32-29-33-356-3-356-3v656 655h385 385z"/><path d="m750 2320c-20-20-22-30-17-81 10-109 78-185 236-264 125-63 181-57 167 17-9 49-61 154-112 225-55 78-112 113-193 120-51 5-61 3-81-17z"/><path d="m1608 2326c-21-8-49-21-63-30-56-37-151-185-184-288-19-57-1-82 52-75 105 14 298 146 330 224 25 63 26 143 1 167-19 20-85 20-136 2z"/></g></svg>