<svg height="300pt" preserveAspectRatio="xMidYMid meet" viewBox="0 0 300 300" width="300pt" xmlns="http://www.w3.org/2000/svg"><g transform="matrix(.1 0 0 -.1 0 300)" fill="#2b353d"><path d="m1363 2992c-17-11-29-46-42-127-17-101-18-102-66-121l-44-16-68 49c-79 58-106 73-127 73-23 0-182-146-196-179-15-38-10-53 54-146l54-79-18-45-18-46-101-16c-142-23-141-21-141-181 0-159-1-158 138-182l101-18 17-45c12-29 14-50 8-59-106-153-115-169-109-193 8-33 162-188 195-196 20-5 45 7 116 55l90 61 45-17 46-17 16-106c23-142 22-141 183-141 155 0 154-1 178 141l18 105 45 17 45 17 83-60c114-82 119-82 228 28s110 116 28 231l-59 83 18 41c21 47 27 50 138 67 121 18 121 18 123 178 1 105-1 137-13 148-8 8-52 21-99 30-46 8-94 17-106 19-14 3-27 20-38 49l-17 44 62 90c79 114 78 121-34 231-105 102-112 102-227 23l-84-59-42 19c-46 20-45 18-64 138-18 122-16 120-172 120-72 0-137-4-144-8zm251-621c77-41 134-131 135-217 2-107-79-218-180-248-65-20-82-20-145-1-170 50-238 257-131 397 78 103 207 130 321 69z"/><path d="m672 1299c-85-14-355-123-591-238-71-34-81-44-81-81 0-24 309-719 332-747 6-7 27-13 47-13 27 0 62 17 145 70 85 54 118 70 147 70 28 0 113-39 350-159 173-88 342-169 376-180 83-28 212-29 289-1 77 27 340 191 934 582 258 170 303 206 340 271 42 73 43 153 2 198-24 27-38 33-83 37-37 3-67-1-94-12-22-9-178-108-346-219-294-193-308-204-330-251-29-60-85-109-158-138-54-22-68-23-341-23-253 0-298 3-400 22-167 33-202 45-219 75-13 23-13 29 2 52 21 31 46 33 142 11 138-32 271-45 482-45 233 0 298 9 344 47 63 53 78 141 36 204-38 59-97 80-249 89-134 9-259 28-354 55-46 13-63 27-162 133-126 134-187 174-292 191-76 13-193 12-268 0z"/><path d="m2025 1296c-27-7-62-18-77-24-30-12-316-188-337-208-15-14 20-19 194-28l101-6 182 113c99 61 181 116 182 120 0 15-71 38-133 42-35 3-84-1-112-9z"/><path d="m2411 1200c-24-11-120-68-213-127l-170-106 36-36c19-20 42-53 51-73 8-21 17-38 20-38 2 0 119 76 260 168l255 168-22 21c-51 46-144 56-217 23z"/></g></svg>