<svg enable-background="new 0 0 512 512" viewBox="0 0 512 512" xmlns="http://www.w3.org/2000/svg"><g fill="#2b353d"><path d="m0 298.667v160c0 29.397 23.936 53.333 53.333 53.333h405.333c29.398 0 53.334-23.936 53.334-53.333v-160zm96 170.666h-21.333c-5.888 0-10.667-4.779-10.667-10.667s4.779-10.666 10.667-10.666h21.333c5.888 0 10.667 4.779 10.667 10.667s-4.779 10.666-10.667 10.666zm0-42.666h-21.333c-5.888 0-10.667-4.779-10.667-10.667s4.779-10.667 10.667-10.667h21.333c5.888 0 10.667 4.779 10.667 10.667s-4.779 10.667-10.667 10.667zm0-42.667h-21.333c-5.888 0-10.667-4.779-10.667-10.667s4.779-10.667 10.667-10.667h21.333c5.888 0 10.667 4.779 10.667 10.667s-4.779 10.667-10.667 10.667zm0-42.667h-21.333c-5.888 0-10.667-4.779-10.667-10.667 0-5.887 4.779-10.666 10.667-10.666h21.333c5.888 0 10.667 4.779 10.667 10.667s-4.779 10.666-10.667 10.666zm64 128h-21.333c-5.888 0-10.667-4.779-10.667-10.667s4.779-10.666 10.667-10.666h21.333c5.888 0 10.667 4.779 10.667 10.667s-4.779 10.666-10.667 10.666zm0-42.666h-21.333c-5.888 0-10.667-4.779-10.667-10.667s4.779-10.667 10.667-10.667h21.333c5.888 0 10.667 4.779 10.667 10.667s-4.779 10.667-10.667 10.667zm0-42.667h-21.333c-5.888 0-10.667-4.779-10.667-10.667s4.779-10.667 10.667-10.667h21.333c5.888 0 10.667 4.779 10.667 10.667s-4.779 10.667-10.667 10.667zm0-42.667h-21.333c-5.888 0-10.667-4.779-10.667-10.667s4.779-10.667 10.667-10.667h21.333c5.888 0 10.667 4.779 10.667 10.667 0 5.889-4.779 10.667-10.667 10.667zm64 128h-21.333c-5.888 0-10.667-4.779-10.667-10.667s4.779-10.666 10.667-10.666h21.333c5.888 0 10.667 4.779 10.667 10.667s-4.779 10.666-10.667 10.666zm0-42.666h-21.333c-5.888 0-10.667-4.779-10.667-10.667s4.779-10.667 10.667-10.667h21.333c5.888 0 10.667 4.779 10.667 10.667s-4.779 10.667-10.667 10.667zm0-42.667h-21.333c-5.888 0-10.667-4.779-10.667-10.667s4.779-10.667 10.667-10.667h21.333c5.888 0 10.667 4.779 10.667 10.667s-4.779 10.667-10.667 10.667zm0-42.667h-21.333c-5.888 0-10.667-4.779-10.667-10.667s4.779-10.667 10.667-10.667h21.333c5.888 0 10.667 4.779 10.667 10.667 0 5.889-4.779 10.667-10.667 10.667zm234.667 128h-170.667c-5.888 0-10.667-4.779-10.667-10.667s4.779-10.666 10.667-10.666h170.667c5.888 0 10.667 4.779 10.667 10.667s-4.779 10.666-10.667 10.666zm10.666-74.666c0 5.888-4.779 10.667-10.667 10.667h-42.88c-10.027 13.29-25.771 21.333-42.453 21.333s-32.426-8.043-42.453-21.333h-42.88c-5.888 0-10.667-4.779-10.667-10.667v-42.667c0-5.888 4.779-10.667 10.667-10.667h42.88c10.027-13.29 25.771-21.333 42.453-21.333s32.426 8.043 42.453 21.333h42.88c5.888 0 10.667 4.779 10.667 10.667z"/><path d="m410.091 362.667c-3.797 0-7.317-2.027-9.216-5.312-5.845-10.027-16.149-16.021-27.541-16.021s-21.696 5.995-27.541 16.021c-1.898 3.285-5.419 5.312-9.216 5.312h-37.909v21.333h37.909c3.798 0 7.296 2.027 9.216 5.312 5.845 10.027 16.149 16.021 27.541 16.021s21.696-5.995 27.541-16.021c1.898-3.285 5.419-5.312 9.216-5.312h37.909v-21.333z"/><path d="m458.667 0h-405.334c-29.397 0-53.333 23.936-53.333 53.333v224h512v-224c0-29.397-23.936-53.333-53.333-53.333zm-96 224c0 5.888-4.779 10.667-10.667 10.667h-277.333c-5.888 0-10.667-4.779-10.667-10.667v-149.333c0-5.888 4.779-10.667 10.667-10.667h277.333c5.888 0 10.667 4.779 10.667 10.667z"/></g></svg>