<svg height="500pt" preserveAspectRatio="xMidYMid meet" viewBox="0 0 500 500" width="500pt" xmlns="http://www.w3.org/2000/svg"><path fill="#2b353d" d="m2380 4981c-72-29-1357-821-1839-1133-267-173-430-289-493-350-40-39-48-53-48-83 0-33 11-47 105-144l105-108v-670-669l-31-30c-50-47-69-94-69-170 0-59-3-70-30-100-63-72-75-109-75-225v-106l52-104c59-120 164-280 200-309 38-30 112-27 146 4 39 36 150 210 197 307 83 173 76 313-21 424-32 36-34 43-34 109 0 59-5 79-28 118-15 26-36 53-47 61-20 14-21 29-27 588l-6 573 24-19c14-11 134-117 268-235l242-214-40-12c-91-27-186-107-230-193-57-110-66-310-22-440 44-126 139-240 241-287 30-14 61-29 69-33s47-81 86-172c198-455 379-743 620-984 190-190 327-279 530-341 84-26 103-28 270-28 159-1 189 2 260 22 105 31 246 98 342 164 101 69 300 267 392 390 171 231 358 573 475 874 28 70 28 70 93 99 220 96 340 373 275 634-39 152-118 243-253 290l-51 18 337 298c578 510 635 567 635 624 0 55-105 140-477 385-453 298-1845 1157-1916 1182-56 20-172 17-227-5zm560-1426c374-45 729-138 993-262l77-36v-374c0-296-3-374-12-370-7 3-52 15-100 28l-88 24v280 281l-32 12c-270 106-547 173-878 214-164 20-681 17-850-5-279-37-557-104-763-182l-97-38-2-280-3-281-90-26c-49-14-96-29-102-33-10-7-13 70-13 371v379l107 47c325 144 738 238 1173 270 119 8 551-4 680-19zm105-870c265-28 456-58 683-110l72-17v-147-147l72 8c81 8 107 4 159-24 54-30 82-86 87-178 5-89-6-136-50-210-41-68-102-107-181-118l-57-7-60-150c-86-214-265-569-359-713-103-157-174-247-275-348-467-464-1008-388-1450 205-96 130-172 253-262 426-64 124-190 406-238 536-18 46-18 46-72 52-103 11-184 80-220 189-25 78-16 213 18 265 38 57 86 78 176 76 40-1 82-5 93-8 18-6 19 0 19 143v150l88 21c261 61 510 95 907 125 119 9 708-4 850-19zm-2668-1295c42-25 56-55 49-98-6-41-85-212-98-212-10 0-71 120-92 183-14 42-14 52-1 83 9 22 26 40 47 49 44 19 57 18 95-5z" transform="matrix(.1 0 0 -.1 0 500)"/></svg>