<svg height="530pt" preserveAspectRatio="xMidYMid meet" viewBox="0 0 438 530" width="438pt" xmlns="http://www.w3.org/2000/svg"><path fill="#2b353d" d="m1915 5294c-354-41-580-102-825-226-177-89-299-177-440-318-144-145-229-264-324-455-110-221-178-456-205-707-6-54-11-277-11-497v-399l-35-52c-52-77-67-137-72-282-4-99-1-139 12-184 45-155 144-277 278-344 44-22 87-40 97-40 25 0 30-9 95-170 385-960 840-1492 1370-1601 115-24 315-25 423-3 298 61 561 245 823 574 42 52 95 123 117 157 45 66 37 61 165 94 57 15 195 80 254 120 69 47 178 154 229 225 58 82 119 212 144 309 14 50 23 129 27 211l6 132 46 6c106 14 213 93 262 191l24 50v335c0 333 0 335-24 383-33 67-101 134-169 165-54 26-66 27-238 30l-181 4-31-27c-17-15-36-43-42-63-8-25-10-195-8-520l3-484 37-34c21-19 47-34 59-34 22 0 22-2 16-117-11-240-106-423-283-549-36-26-66-45-68-43s23 54 56 114c44 81 178 375 178 392 0 0-20 13-43 26-47 28-111 94-129 133-6 13-14 24-17 24s-33-64-65-143c-72-173-174-385-256-529l-61-108h-237-237l-29 55c-33 63-75 103-149 143l-52 27h-215-215l-55-29c-30-15-76-50-102-78-143-151-116-406 56-522 80-54 137-66 317-66 204 0 262 16 347 95 32 30 67 72 77 94l18 41h154 154l-43-62c-61-88-249-274-341-336-96-66-205-117-304-143-105-26-272-26-379 1-441 112-838 609-1199 1499-34 86-68 174-75 196s-16 44-20 48-38 12-75 18c-169 24-265 138-265 317 0 46 7 98 16 125 9 26 17 47 18 47s62-20 136-45c143-48 201-55 239-29 48 34 51 58 51 438v354l68 7c37 4 130 15 207 26 631 89 1162 276 1465 516l80 63 72-76c182-192 449-360 748-473l105-40 5-183c5-175 6-181 18-129 27 116 95 200 201 250 52 24 68 26 214 29l157 4v132c0 522-153 975-427 1267-250 265-613 422-1030 446l-111 6-113 113-114 114-150-1c-82-1-163-4-180-5z" transform="matrix(.1 0 0 -.1 0 530)"/></svg>