<svg height="300pt" preserveAspectRatio="xMidYMid meet" viewBox="0 0 300 300" width="300pt" xmlns="http://www.w3.org/2000/svg"><g transform="matrix(.1 0 0 -.1 0 300)" fill="#2b353d"><path d="m2060 2992c0-4 20-68 45-142 32-96 45-150 45-191v-56l-67-7c-81-8-286-51-344-71-23-8-47-15-54-15-20 0-28 50-11 69 42 46 15 121-44 121-38 0-162-47-177-67-32-42-4-113 46-113 23 0 49-47 34-60-4-4-52-28-106-53l-97-46-14 27c-12 23-12 31 2 60 15 30 15 36 1 60-25 45-59 50-120 17-87-44-119-72-119-103 0-41 26-72 60-72 29 0 66-37 58-59-3-10-154-120-174-128-6-2-21 8-33 22-15 21-18 32-11 45 26 49-5 110-56 110-29 0-109-55-149-101-14-17-25-43-25-59 0-37 42-72 83-68 22 2 34-4 50-25l21-28-81-81-81-81-35 29c-28 24-34 36-33 67 1 45-29 77-72 77-27 0-83-53-129-122-28-42-25-91 7-108 24-13 77-13 85 0 4 6 22-2 46-20l39-31-57-82c-81-118-72-112-124-83-39 23-43 29-41 58 6 62-62 100-113 64-11-8-37-47-59-88-33-64-37-77-27-101 15-37 53-54 92-40 25 10 36 8 74-14 25-13 45-29 45-33 0-5-20-50-44-100-25-49-46-95-48-101-6-17-83 16-80 35 3 18-15 57-32 68-21 14-73 8-89-10-18-19-67-154-67-182 0-49 81-79 118-42 16 16 21 16 58 2 35-13 40-18 34-35-4-11-18-62-30-113-21-86-25-93-44-88-11 3-27 6-33 6-7 0-13 11-13 23 0 50-80 81-116 45-8-8-22-56-31-106l-17-92 24-25c29-31 72-33 101-4 15 15 27 19 50 14l30-7-6-66c-3-37-8-91-11-119l-5-53h1405 1406v1240 1240h-470c-258 0-470-4-470-8zm-326-1000c89-40 149-133 149-232 0-68-19-115-70-170l-38-43-5 129c-4 101-9 136-23 157-27 41-64 61-116 61-80 0-131-52-131-134 0-47 22-95 50-110 19-10 20-7 20 60 0 76 19 110 60 110 11 0 29-9 40-20 19-19 20-33 20-398v-378l28-27c28-27 29-27 176-27 145 0 149 1 167 24 24 30 80 50 119 41 33-7 87-63 96-101 9-37-17-96-55-121-49-33-102-31-144 7l-35 30h-156c-99 0-156-4-156-10 0-18-64-50-98-50-106 0-162 123-92 203l30 35v243 244l-45 18c-50 21-110 82-132 135-21 51-19 140 5 193 42 95 157 165 250 154 24-3 63-13 86-23z"/><path d="m0 200v-200h1500 1500v200 200h-1500-1500z"/></g></svg>