<svg height="83pt" preserveAspectRatio="xMidYMid meet" viewBox="0 0 100 83" width="100pt" xmlns="http://www.w3.org/2000/svg" fill="#e9eaeb"><g transform="matrix(.1 0 0 -.1 0 83)"><path d="m298 789c-142-98-241-219-278-338-29-93-27-220 4-287 51-110 128-164 234-164 72 0 107 12 145 48 42 39 57 75 57 131 0 58-13 97-43 129-33 36-69 51-169 72-50 11-97 25-104 31-22 18 62 173 127 234 42 40 118 101 137 111 8 4-30 74-41 73-6 0-38-18-69-40z"/><path d="m838 789c-142-98-241-219-278-338-29-93-27-220 4-287 51-110 128-164 234-164 72 0 107 12 145 48 42 39 57 75 57 131 0 58-13 97-43 129-33 36-69 51-169 72-50 11-97 25-104 31-22 18 62 173 127 234 42 40 118 101 137 111 8 4-30 74-41 73-6 0-38-18-69-40z"/></g></svg>