<svg height="120pt" preserveAspectRatio="xMidYMid meet" viewBox="0 0 150 120" width="150pt" xmlns="http://www.w3.org/2000/svg" fill="#d03239"><path d="m632 1174c-85-42-134-124-134-224 0-30 5-68 11-84 7-16 10-30 9-32-2-1-34 6-72 17-153 42-407 64-434 37-7-7-12-23-12-38 0-25 172-686 189-726 8-19 20-21 134-27 154-8 263-29 343-68 75-35 91-36 154-4 75 38 199 64 343 71 116 6 130 9 142 28 15 24 195 700 195 731 0 37-20 45-106 45s-274-28-359-54c-27-8-51-14-52-12-2 2 1 15 7 30 16 44 12 146-9 191-23 52-74 103-126 126-62 29-158 25-223-7zm192-103c43-29 66-70 66-121 0-110-122-178-217-120-86 52-86 188 0 240 42 26 113 26 151 1zm-589-291c156-23 322-76 413-134l42-26v-241c0-201-2-240-14-236-100 38-327 77-377 64-10-3-19-4-19-2s-34 130-75 284-75 285-75 290c0 13 15 13 105 1zm1135 4c0-3-34-136-76-294-66-248-79-287-94-283-39 10-234-18-316-45l-84-28v241 241l53 32c99 60 226 102 382 127 92 15 135 18 135 9z" transform="matrix(.1 0 0 -.1 0 120)"/></svg>