<svg height="118pt" preserveAspectRatio="xMidYMid meet" viewBox="0 0 150 118" width="150pt" xmlns="http://www.w3.org/2000/svg" fill="#d03239"><g transform="matrix(.1 0 0 -.1 0 118)"><path d="m365 1164c-71-8-153-21-181-29-58-17-119-70-141-124-57-135-57-707 0-842 22-54 83-107 141-124 205-59 927-59 1132 0 58 17 119 70 141 124 58 137 57 706 0 844-22 52-84 105-141 122-149 43-675 59-951 29zm775-120c141-16 177-29 202-73 56-95 56-668 1-761-8-15-25-33-37-40-30-20-163-38-374-51-260-17-677 12-738 51-12 7-29 25-37 40-55 93-55 668 0 761 9 14 27 33 42 42 23 13 221 41 371 51 106 7 436-4 570-20z"/><path d="m530 590c0-172 4-270 10-270 13 0 540 263 540 270s-527 270-540 270c-6 0-10-98-10-270z"/></g></svg>