<svg height="162pt" preserveAspectRatio="xMidYMid meet" viewBox="0 0 150 162" width="150pt" xmlns="http://www.w3.org/2000/svg" fill="#d03239"><g transform="matrix(.1 0 0 -.1 0 162)"><path d="m79 1597c-18-12-44-38-56-56l-23-34v-582-582l22-33c13-18 36-43 51-54 27-20 42-21 328-24l299-3v61 60h-270c-257 0-271 1-290 20-20 20-20 33-20 558 0 509 1 540 18 555 16 15 51 17 285 17h267v-175-175h170 170v-55-55h65 65v103 102l-188 188-187 187h-336c-333 0-336 0-370-23z"/><path d="m1087 860c-199-215-299-409-282-549 14-115 85-221 187-276 45-25 67-30 143-33 122-5 187 19 266 97 78 79 102 144 97 266-3 82-8 98-46 175-47 95-138 221-234 324l-64 69zm188-275c100-149 123-236 86-321-25-56-54-89-95-111l-28-15 16 23c27 40 20 108-19 185-19 38-45 82-59 99l-24 29-45-69c-41-64-77-147-77-178 0-7 9-29 19-50 10-20 16-37 12-37-19 0-92 75-111 116-29 58-24 126 13 208 31 68 99 172 153 235l38 44 33-39c19-22 58-75 88-119z"/></g></svg>