<svg height="139pt" preserveAspectRatio="xMidYMid meet" viewBox="0 0 150 139" width="150pt" xmlns="http://www.w3.org/2000/svg" fill="#d03239"><path d="m100 1335v-55h113c76 0 119-4 131-13 14-10 25-83 66-457 27-245 52-460 55-478 7-39 58-100 91-108 30-8 30-13-1-43-20-18-25-33-25-73 0-41 5-54 29-79 25-24 38-29 78-29 41 0 54 5 75 28 15 15 30 39 33 54 9 35-11 94-38 113-19 14-1 15 192 15h213l-26-31c-38-45-37-110 3-150 25-24 37-29 78-29 51 1 68 10 96 50 30 43 14 124-30 149-15 9-12 10 15 11h32v60 60h-339c-367 0-353-2-366 57l-6 32 365 3c352 3 366 4 393 24 57 43 68 71 121 341 29 142 52 264 52 271 0 9-106 12-499 12h-499l-5 23c-3 12-9 58-12 102-9 94-31 145-78 174-31 19-50 21-171 21h-136zm1260-382c0-39-77-382-88-395-14-17-44-18-363-18h-348l-5 33c-3 17-13 97-21 177s-18 160-21 178l-5 32h426c234 0 425-3 425-7z" transform="matrix(.1 0 0 -.1 0 139)"/></svg>