<svg height="314pt" preserveAspectRatio="xMidYMid meet" viewBox="0 0 300 314" width="300pt" xmlns="http://www.w3.org/2000/svg"><g transform="matrix(.1 0 0 -.1 0 314)" fill="#23303c"><path d="m1427 3074c-9-94-37-138-127-201-188-132-226-173-264-283l-21-64-59-13c-81-18-170-63-243-123-71-58-83-85-83-195 1-328 216-529 650-606 80-15 174-22 310-25 107-3 202-7 211-10 9-2 21-16 28-31 10-23 9-30-7-52-26-36-83-43-269-36-496 18-846 178-977 447-34 70-66 172-66 210 0 24-16 23-102-8-249-89-408-313-408-575 0-253 140-477 383-613 79-45 245-100 367-123 137-26 607-26 762 0 289 49 413 104 688 311 222 166 294 206 384 213l62 5 37-42c20-24 44-63 53-87s23-43 32-43c27 0 136 123 169 191 145 294 33 620-294 861-78 57-218 129-308 158-38 13-75 28-81 34s-19 42-29 80c-23 88-90 224-149 304-151 204-426 382-591 382h-52z"/><path d="m2513 1151c-23-11-88-54-145-95l-104-77-37-282c-21-155-43-296-48-313-19-60-101-64-116-6-3 14 8 126 26 250 18 123 30 226 28 229-4 3-108-52-195-104-9-6-17-62-27-188-7-99-16-187-20-196-18-47-99-40-112 9-3 14-1 91 4 171 6 80 10 147 9 148-2 2-46-7-100-19l-97-22 7-141 7-141-28-22c-18-15-35-20-49-16-46 14-51 28-54 171l-4 135-36-6c-20-3-57-6-82-6-72 0-71 0-55-130 12-99 12-118 0-137-20-31-51-38-81-18-32 21-32 19-47 155l-12 115-97 3-96 3 13-58c34-141 37-162 31-187-9-36-40-51-76-36-34 14-41 31-75 181l-26 117-50 6c-83 11-234 53-324 89-66 27-85 32-85 21 0-9 29-151 65-317 71-325 80-349 151-404l37-28h887 886l42 28c23 15 50 44 61 66 11 21 63 236 116 477l95 438-24 20c-14 12-36 47-50 79-28 65-42 70-113 38z"/></g></svg>