<svg height="250pt" preserveAspectRatio="xMidYMid meet" viewBox="0 0 250 250" width="250pt" xmlns="http://www.w3.org/2000/svg"><g transform="matrix(.1 0 0 -.1 0 250)" fill="#26303b"><path d="m1549 2446c-148-57-242-163-269-305-12-66-13-151-1-151 5 0 11 7 15 15 4 12 24 15 90 15 155 0 241 31 339 119 73 68 88 66 129-11 40-74 70-98 133-105 26-3 49-12 52-19 11-30 23-12 23 35 0 174-84 315-230 385-56 27-78 31-155 33-57 2-103-2-126-11z"/><path d="m271 2343c-19-66-26-63 155-63 140 0 165 2 161 14-3 8-9 31-13 50l-6 36h-144-143z"/><path d="m200 2160v-50h220 220v50 50h-220-220z"/><path d="m1736 2055c-76-67-185-105-304-105h-74l4-107c2-90 7-116 28-158 114-231 436-231 550 0 21 41 26 68 28 156l4 105-44 13c-56 17-99 50-123 95-11 20-22 36-25 36-3-1-23-16-44-35zm-151-322c37-70 132-67 161 4 12 29 19 33 50 33 36 0 36-1 30-32-14-74-82-128-161-128s-147 54-161 128c-6 31-5 32 27 32 29 0 37-6 54-37z"/><path d="m296 1990c3-25 11-103 17-175l12-130 98-3c74-2 97 0 97 10 0 7 7 76 15 153s15 150 15 162c0 21-4 22-130 25l-130 3z"/><path d="m1270 1746v-65l-42-28c-97-65-143-172-119-278 7-30 16-57 21-60s90 18 189 46l181 52v31c0 26-6 35-35 50-83 45-160 164-172 265-8 72-23 63-23-13z"/><path d="m2036 1757c-13-102-88-218-171-263-29-15-35-24-35-50v-31l181-52c99-28 184-49 189-46s14 30 21 60c24 106-22 213-119 278l-42 28v65c0 77-15 84-24 11z"/><path d="m1568 1401c-3-38-7-46-28-52-14-4-58-17-97-28-42-13-73-27-73-34 0-8 16-32 36-56 122-142 396-142 518 0 20 24 36 48 36 55 0 8-36 24-87 39-49 15-94 28-100 30-8 3-13 22-13 47v43h-95-94z"/><path d="m330 1260v-90h265 265v90 90h-265-265z"/><path d="m1185 1247c-86-27-106-38-146-77-52-52-69-102-69-199v-60l58-3c53-3 58-5 72-35 8-18 18-33 22-33 3 0 12 16 18 36 7 20 32 57 56 82 36 38 44 52 44 84 0 38 0 38 40 38h40v-54c0-52-2-57-46-98-50-46-83-106-84-150 0-22-5-28-21-28s-19-4-14-17c65-162 75-198 75-264v-69l405-2c265-2 405 0 405 7 0 6-7 32-15 59-17 55-17 56 38 105 53 47 77 101 77 174s-27 131-86 186c-42 40-44 45-44 97v54h40c40 0 40 0 40-39 0-30 7-46 35-76 66-69 80-108 80-220 0-110-13-148-76-220-29-33-31-39-23-78l9-42 123-3 123-3-3 338c-3 327-4 339-25 380-34 63-83 97-185 128-51 15-98 29-105 32s-13-1-13-9-13-35-30-61c-56-89-201-157-335-157s-279 68-335 157c-17 26-30 53-30 60 0 16 4 17-115-20z"/><path d="m550 1000v-90h45 45v90 90h-45-45z"/><path d="m141 818c-23-63-80-215-86-230-7-17 23-18 540-18s547 1 540 18c-4 9-25 64-47 122s-44 111-50 118c-8 9-110 12-449 12h-439z"/><path d="m30 445v-45h565 565v45 45h-565-565z"/><path d="m30 270v-50h1205 1205v50 50h-1205-1205z"/><path d="m160 100v-50h1100 1100v50 50h-1100-1100z"/></g></svg>