<svg height="250pt" preserveAspectRatio="xMidYMid meet" viewBox="0 0 250 250" width="250pt" xmlns="http://www.w3.org/2000/svg"><g transform="matrix(.1 0 0 -.1 0 250)" fill="#26303b"><path d="m728 2481c-104-42-175-108-225-210-25-50-28-67-28-156 0-91 3-106 31-165 41-86 108-153 192-193 62-29 75-32 167-32 86 0 108 4 155 26 119 56 207 170 230 301 29 159-65 336-220 414-47 24-69 29-155 31-80 3-109-1-147-16zm382-376c0-146-10-184-62-232-94-88-266-62-324 50-13 24-20 27-68 27-44 0-60 5-85 25-40 34-56 84-41 130 18 54 62 85 121 85 46 0 49 2 49 25v25h205 205z"/><path d="m772 2066c3-84 6-97 28-121 32-34 72-55 105-55s73 21 105 55c22 24 25 37 28 121l4 94h-137-137z"/><path d="m170 2030v-50h120 120l-6 43c-4 23-12 45-18 49s-57 8-113 8h-103z"/><path d="m1332 2063c-5-10-12-33-15-50l-6-33h125 125l-3 48-3 47-107 3c-94 2-108 1-116-15z"/><path d="m85 1709c-39-106-71-196-73-200-2-5 36-9 85-9h89l52 193c29 105 53 195 52 200 0 4-31 7-68 7h-68z"/><path d="m370 1895c0-2-22-86-50-187-27-101-50-189-50-196 0-10 21-12 88-10l87 3 37 143 36 144-34 45c-19 24-34 49-34 54s-18 9-40 9-40-2-40-5z"/><path d="m1246 1848-39-53 28-115c15-63 32-130 37-147l9-33h89c50 0 90 1 90 3 0 1-24 90-54 197l-53 195-34 3c-31 2-38-2-73-50z"/><path d="m1436 1873c4-15 28-104 54-198l46-170 87-3c48-1 87 1 87 5s-32 94-69 198l-69 190-71 3-72 3z"/><path d="m1683 1808c2-7 10-30 18-50l13-38h288 288v50 50h-306c-241 0-305-3-301-12z"/><path d="m575 1718c-2-7-14-51-25-98-12-47-23-93-26-102-5-16 4-18 85-18h91l6 28c3 15 10 43 15 62 14 55 11 80-8 80-10 0-42 14-72 30-62 34-60 34-66 18z"/><path d="m1075 1699c-27-16-58-29-69-29-14 0-17-5-13-22 3-13 11-51 18-85l12-63h89c86 0 90 1 85 20-3 11-15 63-28 115s-28 95-33 94c-6-1-33-14-61-30z"/><path d="m804 1635c-5-17-24-115-24-125 0-6 36-10 80-10 91 0 88-4 69 91l-11 55h-55c-31-1-57-5-59-11z"/><path d="m1740 1645s14-36 30-78c26-68 30-91 30-177v-99l340-3c187-2 340-1 340 0 0 2-39 82-87 178l-88 173-282 3c-156 2-283 3-283 3z"/><path d="m0 1362c0-60 3-71 25-92 38-36 90-33 126 8 25 28 29 40 29 92v60h-90-90z"/><path d="m250 1370c0-52 4-64 29-92 38-42 89-44 128-5 23 22 28 37 31 92l4 65h-96-96z"/><path d="m510 1370c0-51 4-64 28-89 36-40 69-46 110-21 39 24 52 54 52 121v49h-95-95z"/><path d="m770 1375c0-70 14-100 57-120 29-14 40-15 64-4 45 18 59 45 59 116v63h-90-90z"/><path d="m1030 1370c0-70 17-104 62-119 36-13 90 6 107 37 6 12 11 48 11 81v61h-90-90z"/><path d="m1290 1369c0-33 5-69 11-81 17-31 71-50 107-37 45 15 62 49 62 119v60h-90-90z"/><path d="m1550 1367c0-71 14-98 59-116 24-11 35-10 64 4 43 20 57 50 57 120v55h-90-90z"/><path d="m200 1216c-6-9-27-21-46-28l-34-12v-503-503h95 95l-2 328-3 327h-43-42v123 122h640 640v-123-123l-40 4-40 4v-331-331h90 90v504 504l-23 6c-12 3-33 15-45 26l-23 21-30-25c-55-47-143-46-199 0l-30 26-30-26c-56-47-144-47-200 0-28 24-31 25-47 8-24-23-76-44-113-44s-90 21-108 43c-12 14-17 13-49-8-66-45-140-45-199 0-20 15-35 21-39 15-12-20-85-50-120-50-36 0-86 20-116 46-14 13-18 12-29 0z"/><path d="m1707 1188c-31-17-38-25-35-47l3-26 413-3 412-2v50 50l-377-1c-356-2-380-3-416-21z"/><path d="m1672 693 3-348 353-3 352-2v350 350h-355-355zm469 219c182-95 182-349 0-444-124-65-268-20-336 103-72 134-9 304 132 355 66 23 144 18 204-14z"/><path d="m300 950v-50h565 565v50 50h-565-565z"/><path d="m387 824c-4-4-7-153-7-331v-323l223 2 222 3v325 325l-216 3c-118 1-218-1-222-4z"/><path d="m907 823c-4-3-7-152-7-330v-323h220 220v330 330h-213c-118 0-217-3-220-7z"/><path d="m1672 218 3-43 413-3 412-2v45 45h-416-415z"/><path d="m40 45v-45h825 825v45 45h-825-825z"/></g></svg>