<svg height="250pt" preserveAspectRatio="xMidYMid meet" viewBox="0 0 250 250" width="250pt" xmlns="http://www.w3.org/2000/svg"><g transform="matrix(.1 0 0 -.1 0 250)" fill="#26303b"><path d="m457 2472c-34-35-34-54 0-92l26-30h142 141l37-64 37-63-62-65c-97-99-165-230-183-351l-7-47h356c197 0 355 3 353 8-42 77-416 693-430 710-20 21-26 22-202 22h-181z"/><path d="m1143 2353c-18-2-33-6-33-7 0-2 78-133 174-292l174-289 227-3 227-2-7 47c-18 123-87 254-185 353-125 126-271 190-445 195-55 2-115 1-132-2z"/><path d="m485 1618c-46-27-54-49-55-144 0-88 1-93 29-123l29-31h762 762l29 31c28 30 29 35 29 123-1 96-10 119-57 145-31 16-1500 15-1528-1z"/><path d="m610 1178c0-6 27-261 61-567 49-451 64-561 78-581l18-25h483 483l18 25c14 20 29 130 78 581 34 306 61 561 61 567 0 9-164 12-640 12s-640-3-640-12zm775-253c146-62 236-210 222-362-13-131-92-244-212-300-51-24-73-28-145-28s-94 4-145 28c-206 96-276 346-149 534 41 60 123 120 191 139 61 18 185 11 238-11z"/><path d="m1185 807c-26-6-57-28-91-62-41-41-54-61-63-103-30-144 73-274 219-274 164 0 275 175 202 318-28 55-93 109-147 123-51 13-66 13-120-2z"/></g></svg>