<svg height="334pt" preserveAspectRatio="xMidYMid meet" viewBox="0 0 300 334" width="300pt" xmlns="http://www.w3.org/2000/svg"><g transform="matrix(.1 0 0 -.1 0 334)" fill="#23303c"><path d="m1980 3329c-590-48-988-176-1217-392-71-66-87-113-80-220 9-133 73-289 195-470 124-186 266-328 390-389 60-30 66-31 155-25 190 12 487 93 681 185 212 102 374 219 541 394 190 198 264 307 299 444 21 80 21 186 0 225-18 35-82 68-131 69-31 0-33 2-33 34 0 48-37 97-95 126-49 25-53 25-325 26-151 1-322-2-380-7zm373-364c14-14 28-37 31-50 8-30-15-77-46-99-65-46-163 22-144 100 18 72 108 99 159 49z"/><path d="m461 2685c-191-183-321-417-376-675-13-60-12-68 11-140 40-127 107-207 221-264 72-37 152-55 288-68 80-7 126-16 138-26 23-20 22-65-3-87-18-16-33-17-132-12-211 11-373 72-487 183-36 35-66 63-67 61-5-7 18-267 32-347 16-95 54-252 73-302 20-53 186-126 308-135 86-7 151 8 214 48 53 33 89 37 112 11 40-44 10-90-90-140-112-57-241-64-381-20-35 11-66 17-69 14-6-6 45-98 99-178 87-130 265-308 307-308 39 0 197 75 265 127 51 38 76 51 91 47 26-8 41-24 50-52 10-35-69-106-183-165-50-26-92-50-92-53 0-12 192-94 285-123 218-66 381-85 665-78 283 7 433 44 580 142 108 72 149 149 137 257-5 42-2 55 18 86 53 81 71 192 40 252-20 38-60 68-102 76-65 12-108-11-218-115-150-143-258-209-422-257-120-35-262-37-345-5-165 64-307 240-371 461-35 119-41 199-24 295 30 163 100 287 231 414l78 75 37-70c148-282 422-448 754-457 82-2 90 0 108 22 24 30 24 62-1 93-17 22-29 26-112 31-205 14-364 81-488 207-41 42-91 104-110 138l-35 62-66-6c-199-19-438 156-654 477-124 183-194 345-219 504l-12 79z"/><path d="m1857 1792-78-27 23-22c72-66 234-143 356-169 77-16 229-19 266-4 43 16 52 90 15 122-16 14-40 17-117 17-117 0-190 17-297 71-44 22-82 40-85 39-3 0-40-13-83-27z"/></g></svg>