<svg height="238pt" preserveAspectRatio="xMidYMid meet" viewBox="0 0 238 238" width="238pt" xmlns="http://www.w3.org/2000/svg" fill="currentColor"><path d="m755 2366c-127-32-197-100-282-271l-58-116-130-69c-148-78-200-124-242-215-24-51-28-73-28-145 0-74 6-102 43-210l42-125-41-120c-37-104-42-132-43-210-1-83 2-96 31-156 45-90 99-137 242-208l120-60 67-131c53-104 78-141 121-180 113-103 231-116 443-48l129 41 133-42c122-40 139-43 218-39 161 8 237 66 338 263l67 130 125 65c204 105 272 195 273 360 1 61-7 99-41 206l-42 131 42 129c51 156 55 243 19 337-36 93-96 147-245 225l-129 67-68 130c-80 151-134 210-226 246-95 36-181 31-335-20l-128-42-124 40c-144 46-220 56-291 37zm698-1278-408-408-222 222-223 223 82 82 83 83 135-135c74-74 140-135 145-135 6 0 154 144 330 320l320 320 82-82 83-83z" transform="matrix(.1 0 0 -.1 0 238)"/></svg>