<svg height="512pt" preserveAspectRatio="xMidYMid meet" viewBox="0 0 512 512" width="512pt" xmlns="http://www.w3.org/2000/svg"><path fill="#2cb742" d="m2285 5105c-874-114-1623-670-1983-1471-78-175-151-416-181-599-7-38-14-83-17-100-2-16-9-96-14-177-28-432 62-882 254-1268 34-69 69-135 77-148 13-20-3-73-205-678-120-360-215-658-212-661 3-4 326 78 717 181l711 187 117-55c372-173 798-252 1209-226 81 5 161 12 177 14 17 3 62 10 100 17 762 125 1444 624 1805 1321 145 282 226 543 266 858 16 134 18 439 4 578-70 659-409 1276-930 1694-370 296-833 488-1302 538-131 14-470 11-593-5zm-510-903c72-35 233-203 340-355 123-174 158-241 159-309 1-69-17-97-109-173-126-104-162-144-196-219-27-57-33-84-33-137 0-125 6-133 467-596 465-466 479-477 606-477 54 0 79 6 137 33 75 34 115 70 219 196 76 92 104 110 173 109 68-1 135-36 309-159 156-110 320-268 358-345 39-77 38-158-1-230-32-59-231-255-330-326-347-248-743-192-1194 169-105 84-1173 1150-1273 1271-385 463-447 863-190 1223 61 86 277 305 323 329 76 39 152 37 235-4z" transform="matrix(.1 0 0 -.1 0 512)"/></svg>