<svg height="158" viewBox="0 0 157 158" width="157" xmlns="http://www.w3.org/2000/svg" xmlns:xlink="http://www.w3.org/1999/xlink"><defs><linearGradient id="a" x1="53.605%" x2="29.268%" y1="74.607%" y2="2.863%"><stop offset="0" stop-color="#0359de"/><stop offset="1" stop-color="#0045a7"/></linearGradient><circle id="b" cx="47" cy="47" r="47"/><pattern id="c" height="512" patternUnits="userSpaceOnUse" width="512" x="-512" y="-512"/><filter id="d" height="133%" width="133%" x="-16.5%" y="-16.5%"><feGaussianBlur in="SourceAlpha" result="shadowBlurInner1" stdDeviation="7"/><feOffset dx="6" dy="7" in="shadowBlurInner1" result="shadowOffsetInner1"/><feComposite in="shadowOffsetInner1" in2="SourceAlpha" k2="-1" k3="1" operator="arithmetic" result="shadowInnerInner1"/><feColorMatrix in="shadowInnerInner1" result="shadowMatrixInner1" values="0 0 0 0 1   0 0 0 0 1   0 0 0 0 1  0 0 0 0.15 0"/><feGaussianBlur in="SourceAlpha" result="shadowBlurInner2" stdDeviation="10"/><feOffset dy="11" in="shadowBlurInner2" result="shadowOffsetInner2"/><feComposite in="shadowOffsetInner2" in2="SourceAlpha" k2="-1" k3="1" operator="arithmetic" result="shadowInnerInner2"/><feColorMatrix in="shadowInnerInner2" result="shadowMatrixInner2" values="0 0 0 0 0   0 0 0 0 0   0 0 0 0 0  0 0 0 0.14 0"/><feOffset dx="1" dy="1" in="SourceAlpha" result="shadowOffsetInner3"/><feComposite in="shadowOffsetInner3" in2="SourceAlpha" k2="-1" k3="1" operator="arithmetic" result="shadowInnerInner3"/><feColorMatrix in="shadowInnerInner3" result="shadowMatrixInner3" values="0 0 0 0 0   0 0 0 0 0   0 0 0 0 0  0 0 0 0.1 0"/><feMerge><feMergeNode in="shadowMatrixInner1"/><feMergeNode in="shadowMatrixInner2"/><feMergeNode in="shadowMatrixInner3"/></feMerge></filter><linearGradient id="e" x1="101.173%" x2="12.25%" y1="100%" y2="6.349%"><stop offset="0" stop-color="#006af3"/><stop offset="1" stop-color="#025fad"/></linearGradient><circle id="f" cx="110" cy="111" r="47"/><pattern id="g" height="512" patternUnits="userSpaceOnUse" width="512" x="-449" y="-448"/><filter id="h" height="133%" width="133%" x="-16.5%" y="-16.5%"><feOffset dx="-1" dy="-1" in="SourceAlpha" result="shadowOffsetInner1"/><feComposite in="shadowOffsetInner1" in2="SourceAlpha" k2="-1" k3="1" operator="arithmetic" result="shadowInnerInner1"/><feColorMatrix in="shadowInnerInner1" result="shadowMatrixInner1" values="0 0 0 0 1   0 0 0 0 1   0 0 0 0 1  0 0 0 0.05 0"/><feGaussianBlur in="SourceAlpha" result="shadowBlurInner2" stdDeviation="10"/><feOffset dy="11" in="shadowBlurInner2" result="shadowOffsetInner2"/><feComposite in="shadowOffsetInner2" in2="SourceAlpha" k2="-1" k3="1" operator="arithmetic" result="shadowInnerInner2"/><feColorMatrix in="shadowInnerInner2" result="shadowMatrixInner2" values="0 0 0 0 0   0 0 0 0 0   0 0 0 0 0  0 0 0 0.14 0"/><feOffset dx="1" dy="1" in="SourceAlpha" result="shadowOffsetInner3"/><feComposite in="shadowOffsetInner3" in2="SourceAlpha" k2="-1" k3="1" operator="arithmetic" result="shadowInnerInner3"/><feColorMatrix in="shadowInnerInner3" result="shadowMatrixInner3" values="0 0 0 0 0   0 0 0 0 0   0 0 0 0 0  0 0 0 0.1 0"/><feMerge><feMergeNode in="shadowMatrixInner1"/><feMergeNode in="shadowMatrixInner2"/><feMergeNode in="shadowMatrixInner3"/></feMerge></filter><linearGradient id="i" x1="16.446%" x2="85.016%" y1="8.542%" y2="89.561%"><stop offset="0" stop-color="#0071c2"/><stop offset="1" stop-color="#00b9ff"/></linearGradient><circle id="j" cx="79" cy="80" r="73"/><pattern id="k" height="512" patternUnits="userSpaceOnUse" width="512" x="-506" y="-505"/><filter id="l" height="100.7%" width="100.7%" x="-.3%" y="-.3%"><feOffset dx="-1" dy="-1" in="SourceAlpha" result="shadowOffsetInner1"/><feComposite in="shadowOffsetInner1" in2="SourceAlpha" k2="-1" k3="1" operator="arithmetic" result="shadowInnerInner1"/><feColorMatrix in="shadowInnerInner1" values="0 0 0 0 1   0 0 0 0 1   0 0 0 0 1  0 0 0 0.05 0"/></filter><linearGradient id="m" x1="29.468%" x2="97.963%" y1="50%" y2="50%"><stop offset="0" stop-color="#f0f0f0"/><stop offset="1" stop-color="#fff"/></linearGradient><path id="n" d="m76.3720839 122c-6.9567976-.15668-13.8714926-.845001-20.3721792-3.672917-1.3303888-.578926-2.6051606-1.355171-3.7660996-2.221387-2.7169143-2.027133-3.3848375-4.845593-2.7468019-7.994027.5096489-2.513277 2.8653128-4.272801 5.6659125-4.44175 2.3138213-.139556 4.4433789.444226 6.5113421 1.429294 3.5046479 1.668787 6.967973 3.463073 10.8892283 4.056823 3.8531635.583526 7.6878747.646147 11.4178492-.647937 4.6804008-1.624058 7.090902-5.688804 6.1446341-10.2143906-.4641677-2.2193418-1.8821402-3.7950923-3.617961-5.1395283-3.5106254-2.719288-7.6226417-4.3446242-11.6231641-6.182872-4.8589468-2.2323772-9.7659737-4.3862863-14.4915957-6.8694034-4.0335288-2.1196592-7.3406586-5.1666215-9.3197386-9.3328395-3.4703421-7.3059617-3.2070712-18.1902701 5.8283452-24.9571794 4.7638262-3.5676117 10.20909-5.3624082 16.0117058-6.2235118 7.5023116-1.113377 14.9479666-.6553486 22.2288499 1.4484637 1.9606277.5664011 3.8801924 1.4990717 5.5988601 2.5968573 2.885585 1.8433598 3.879413 5.2895633 2.757458 8.4758255-1.126893 3.20032-4.6970342 4.6960689-8.2344286 3.4239666-2.4796326-.8920307-4.9098857-1.9325628-7.4253834-2.7095752-4.660649-1.4395178-9.4117404-1.8574176-14.2038949-.6180316-.9551043.2469059-1.8938353.6162424-2.7808478 1.0474332-6.3577458 3.0919472-7.0669919 10.3166292-1.2409858 14.29754 2.6051606 1.7799719 5.5653341 3.1026822 8.4727495 4.3980437 5.7137326 2.5449714 11.6647469 4.5815619 17.0382805 7.8465477 4.4387009 2.6967954 8.3238315 5.9824845 10.2293615 10.8735734 4.016376 10.3102397 1.144046 23.9641877-13.2108462 28.9357897-5.0923301 1.763614-10.3590479 2.310334-15.7606499 2.395192"/><filter id="o" height="122.9%" width="132.8%" x="-16.4%" y="-10.2%"><feOffset dy="1" in="SourceAlpha" result="shadowOffsetOuter1"/><feGaussianBlur in="shadowOffsetOuter1" result="shadowBlurOuter1" stdDeviation="3"/><feColorMatrix in="shadowBlurOuter1" result="shadowMatrixOuter1" values="0 0 0 0 0   0 0 0 0 0   0 0 0 0 0  0 0 0 0.1 0"/><feOffset dy="1" in="SourceAlpha" result="shadowOffsetOuter2"/><feGaussianBlur in="shadowOffsetOuter2" result="shadowBlurOuter2" stdDeviation=".5"/><feColorMatrix in="shadowBlurOuter2" result="shadowMatrixOuter2" values="0 0 0 0 0   0 0 0 0 0   0 0 0 0 0  0 0 0 0.1 0"/><feMerge><feMergeNode in="shadowMatrixOuter1"/><feMergeNode in="shadowMatrixOuter2"/></feMerge></filter></defs><g fill="none" fill-rule="evenodd"><use fill="url(#a)" xlink:href="#b"/><use fill="url(#c)" fill-opacity=".012" xlink:href="#b"/><use fill="#000" filter="url(#d)" xlink:href="#b"/><use fill="url(#e)" xlink:href="#f"/><use fill="url(#g)" fill-opacity=".012" xlink:href="#f"/><use fill="#000" filter="url(#h)" xlink:href="#f"/><use fill="url(#i)" xlink:href="#j"/><use fill="url(#k)" fill-opacity=".012" xlink:href="#j"/><use fill="#000" filter="url(#l)" xlink:href="#j"/><use fill="#000" filter="url(#o)" xlink:href="#n"/><use fill="url(#m)" xlink:href="#n"/></g></svg>